<svg width="13" height="80" viewBox="0 0 13 80" fill="none" xmlns="http://www.w3.org/2000/svg">
<g clip-path="url(#clip0_127_1540)">
<path d="M0.5 80C0.22 80 1.2676e-08 79.71 2.88493e-08 79.34L3.46806e-06 0.660001C3.4838e-06 0.300001 0.220004 5.34153e-07 0.500003 5.46392e-07C0.780003 5.58631e-07 1 0.290001 1 0.660001L1 79.35C1 79.71 0.78 80.01 0.5 80.01L0.5 80Z" fill="#17504A"/>
<path d="M0.500106 80C0.380106 80 0.260106 79.96 0.160106 79.87C-0.0398941 79.68 -0.0598936 79.37 0.130106 79.16L12.1301 66.16C12.3201 65.96 12.6301 65.94 12.8401 66.13C13.0401 66.32 13.0601 66.63 12.8701 66.84L0.870106 79.84C0.770105 79.95 0.640106 80 0.500106 80Z" fill="#17504A"/>
</g>
<defs>
<clipPath id="clip0_127_1540">
<rect width="80" height="13" fill="white" transform="translate(13) rotate(90)"/>
</clipPath>
</defs>
</svg>
