<svg width="35" height="35" viewBox="0 0 35 35" fill="none" xmlns="http://www.w3.org/2000/svg">
<path d="M27.125 7C28.2853 7 29.3981 7.46094 30.2186 8.28141C31.0391 9.10188 31.5 10.2147 31.5 11.375V25.375C31.5 26.5353 31.0391 27.6481 30.2186 28.4686C29.3981 29.2891 28.2853 29.75 27.125 29.75H7.875C6.71468 29.75 5.60188 29.2891 4.78141 28.4686C3.96094 27.6481 3.5 26.5353 3.5 25.375V11.375C3.5 10.2147 3.96094 9.10188 4.78141 8.28141C5.60188 7.46094 6.71468 7 7.875 7H27.125ZM29.75 13.9317L17.9445 20.8792C17.8329 20.9448 17.7081 20.9847 17.5792 20.9962C17.4503 21.0077 17.3204 20.9905 17.199 20.9457L17.0555 20.8792L5.25 13.9352V25.375C5.25 26.0712 5.52656 26.7389 6.01884 27.2312C6.51113 27.7234 7.17881 28 7.875 28H27.125C27.8212 28 28.4889 27.7234 28.9812 27.2312C29.4734 26.7389 29.75 26.0712 29.75 25.375V13.9317ZM27.125 8.75H7.875C7.17881 8.75 6.51113 9.02656 6.01884 9.51884C5.52656 10.0111 5.25 10.6788 5.25 11.375V11.9035L17.5 19.11L29.75 11.9V11.375C29.75 10.6788 29.4734 10.0111 28.9812 9.51884C28.4889 9.02656 27.8212 8.75 27.125 8.75Z" fill="#FDFDFD"/>
</svg>
