<svg width="50" height="160" viewBox="0 0 50 160" fill="none" xmlns="http://www.w3.org/2000/svg">
<g opacity="0.85">
<path d="M0 10C0 4.47715 4.47715 0 10 0H50V160H10C4.47715 160 0 155.523 0 150V10Z" fill="#17504A"/>
<g filter="url(#filter0_d_217_1385)">
<path d="M17.7999 35.0001V27.6477L25.8951 31.9173C25.9873 31.9715 26.0923 32.0001 26.1993 32.0001C26.3063 32.0001 26.4113 31.9715 26.5035 31.9173L34.5999 27.6477V35.0001C34.5999 35.7957 34.2838 36.5588 33.7212 37.1214C33.1586 37.684 32.3956 38.0001 31.5999 38.0001H20.7999C20.0043 38.0001 19.2412 37.684 18.6786 37.1214C18.116 36.5588 17.7999 35.7957 17.7999 35.0001ZM17.8179 26.2677C17.8997 25.5341 18.2491 24.8563 18.7993 24.3642C19.3494 23.872 20.0617 23.6 20.7999 23.6001H31.5999C32.3381 23.6 33.0504 23.872 33.6005 24.3642C34.1507 24.8563 34.5001 25.5341 34.5819 26.2677L26.1999 30.7041L17.8179 26.2677ZM29.1999 40.4001C30.1815 40.4001 31.0527 39.9285 31.5999 39.2001H20.7999C19.686 39.2001 18.6177 38.7576 17.8301 37.9699C17.0424 37.1823 16.5999 36.114 16.5999 35.0001V26.6001C15.8715 27.1473 15.3999 28.0185 15.3999 29.0001V35.0001C15.3999 36.4323 15.9688 37.8058 16.9815 38.8185C17.9942 39.8312 19.3677 40.4001 20.7999 40.4001H29.1999Z" fill="#FDFDFD"/>
</g>
<path d="M23.473 48.548C23.434 48.782 23.395 49.224 23.382 49.549C23.33 50.42 23.278 52.162 23.278 53.449C23.278 54.827 23.343 56.959 23.343 57.739C23.343 59.117 22.849 59.52 22.069 59.52C20.951 59.52 19.222 58.493 19.222 57.232C19.222 56.036 20.795 54.788 22.498 54.164C23.655 53.722 24.955 53.501 25.969 53.501C27.919 53.501 29.375 54.528 29.375 56.192C29.375 57.752 28.465 58.818 26.554 59.286C25.969 59.416 25.397 59.442 24.903 59.468L24.435 58.155C24.968 58.155 25.527 58.155 25.995 58.064C27.1 57.856 28.049 57.284 28.049 56.192C28.049 55.178 27.139 54.619 25.956 54.619C24.825 54.619 23.72 54.866 22.654 55.295C21.432 55.763 20.496 56.556 20.496 57.18C20.496 57.687 21.276 58.129 21.705 58.129C21.978 58.129 22.16 57.973 22.16 57.531C22.16 56.816 22.082 55.009 22.082 53.501C22.082 52.019 22.121 50.121 22.121 49.562C22.121 49.302 22.082 48.769 22.043 48.548H23.473ZM27.373 49.978C28.322 50.459 29.778 51.33 30.441 51.837L29.804 52.89C29.167 52.318 27.607 51.382 26.788 50.966L27.373 49.978ZM19.495 50.784C20.236 50.875 20.743 50.888 21.211 50.888C22.524 50.888 24.565 50.628 25.878 50.238L25.917 51.512C24.513 51.837 22.407 52.097 21.25 52.097C20.457 52.097 19.963 52.084 19.521 52.032L19.495 50.784ZM22.498 69.32H26.931V73.259H22.498V72.245H25.774V70.347H22.498V69.32ZM21.965 69.32H23.109V74.026H21.965V69.32ZM19.716 65.446H23.174V66.317H19.716V65.446ZM25.722 65.446H29.232V66.317H25.722V65.446ZM28.699 63.561H29.947V73.545C29.947 74.299 29.778 74.663 29.31 74.871C28.816 75.079 28.036 75.092 26.866 75.092C26.827 74.754 26.619 74.169 26.437 73.844C27.256 73.883 28.127 73.87 28.374 73.857C28.621 73.857 28.699 73.779 28.699 73.532V63.561ZM19.807 63.561H23.954V68.267H19.807V67.305H22.797V64.523H19.807V63.561ZM29.362 63.561V64.523H26.164V67.331H29.362V68.28H24.994V63.561H29.362ZM19.118 63.561H20.34V75.105H19.118V63.561ZM21.107 79.835C21.029 80.212 20.977 80.888 20.977 81.239C20.964 82.071 20.977 83.163 21.055 84.177C21.263 86.218 21.783 87.596 22.667 87.596C23.304 87.596 23.876 86.166 24.175 84.983L25.202 86.192C24.383 88.428 23.59 89.195 22.641 89.195C21.315 89.195 20.119 87.947 19.755 84.528C19.638 83.371 19.612 81.811 19.612 81.044C19.612 80.719 19.599 80.16 19.521 79.809L21.107 79.835ZM27.75 80.173C28.946 81.668 29.908 84.645 30.077 86.751L28.751 87.284C28.53 85.048 27.789 82.162 26.463 80.602L27.75 80.173ZM21.237 97.253H27.776V98.345H21.237V97.253ZM21.029 103.506H27.893V104.598H21.029V103.506ZM20.483 99.84H28.582V105.118H27.321V100.932H21.692V105.118H20.483V99.84ZM24.461 94.263C23.382 95.823 21.315 97.617 19.131 98.8C18.962 98.514 18.624 98.072 18.351 97.812C20.626 96.681 22.771 94.705 23.759 93.054H25.033C26.437 95.017 28.634 96.759 30.714 97.643C30.415 97.955 30.116 98.371 29.908 98.748C27.88 97.682 25.644 95.875 24.461 94.263ZM24.76 117.947C26.996 117.622 28.829 116.634 28.816 114.489C28.816 113.488 28.01 112.331 26.476 112.331C24.812 112.331 23.356 113.267 22.095 114.593V113.137C23.655 111.668 25.306 111.135 26.684 111.135C28.569 111.135 30.155 112.474 30.168 114.515C30.168 117.141 28.374 118.597 25.371 119.182L24.76 117.947ZM21.822 111.954C21.328 112.006 19.989 112.188 19.079 112.318L18.936 110.979C19.261 110.992 19.534 110.992 19.911 110.966C20.665 110.927 22.303 110.706 22.901 110.511L23.343 111.057C23.109 111.382 22.745 111.98 22.524 112.331L21.965 114.398C21.38 115.282 20.197 117.024 19.443 118.077L18.624 116.959C19.443 115.945 21.107 113.696 21.679 112.773L21.718 112.253L21.822 111.954ZM21.679 109.64C21.679 109.315 21.692 108.951 21.627 108.587L23.148 108.639C22.953 109.562 22.537 113.15 22.537 115.451C22.537 116.582 22.537 117.505 22.602 118.688C22.615 118.922 22.654 119.312 22.68 119.572H21.263C21.289 119.351 21.302 118.935 21.302 118.727C21.315 117.466 21.328 116.712 21.354 115.204C21.38 114.047 21.679 110.147 21.679 109.64ZM27.75 123.899C27.724 124.12 27.698 124.614 27.685 124.926C27.672 125.758 27.672 126.603 27.646 127.266C27.62 128.332 27.581 129.736 27.451 130.412C27.321 131.036 27.009 131.205 26.385 131.205C25.917 131.205 24.955 131.088 24.565 131.023L24.591 129.879C25.02 129.983 25.566 130.048 25.852 130.048C26.138 130.048 26.268 129.996 26.307 129.723C26.385 129.229 26.424 128.176 26.45 127.266C26.45 126.564 26.45 125.719 26.45 124.978C26.45 124.666 26.411 124.146 26.372 123.899H27.75ZM22.628 124.302C22.576 124.666 22.563 125.017 22.563 125.485C22.55 126.798 22.511 130.308 22.537 131.283C22.576 132.635 22.641 133.038 24.76 133.038C26.112 133.038 27.737 132.882 28.634 132.726L28.582 134.117C27.711 134.208 26.125 134.325 24.838 134.325C21.679 134.325 21.341 133.623 21.276 131.478C21.25 130.373 21.276 126.226 21.276 125.55C21.276 125.095 21.25 124.731 21.185 124.302H22.628ZM18.533 127.344C18.923 127.344 19.456 127.318 20.015 127.253C21.38 127.136 26.294 126.629 28.894 126.486C29.245 126.46 29.674 126.434 30.012 126.408V127.682C29.804 127.669 29.219 127.682 28.894 127.682C26.827 127.734 21.679 128.28 20.093 128.462C19.69 128.514 19.027 128.618 18.676 128.67L18.533 127.344Z" fill="#FDFDFD"/>
</g>
<defs>
<filter id="filter0_d_217_1385" x="9" y="20" width="32" height="32" filterUnits="userSpaceOnUse" color-interpolation-filters="sRGB">
<feFlood flood-opacity="0" result="BackgroundImageFix"/>
<feColorMatrix in="SourceAlpha" type="matrix" values="0 0 0 0 0 0 0 0 0 0 0 0 0 0 0 0 0 0 127 0" result="hardAlpha"/>
<feOffset dy="4"/>
<feGaussianBlur stdDeviation="2"/>
<feComposite in2="hardAlpha" operator="out"/>
<feColorMatrix type="matrix" values="0 0 0 0 0 0 0 0 0 0 0 0 0 0 0 0 0 0 0.25 0"/>
<feBlend mode="normal" in2="BackgroundImageFix" result="effect1_dropShadow_217_1385"/>
<feBlend mode="normal" in="SourceGraphic" in2="effect1_dropShadow_217_1385" result="shape"/>
</filter>
</defs>
</svg>
