<svg width="35" height="35" viewBox="0 0 35 35" fill="none" xmlns="http://www.w3.org/2000/svg">
<path d="M17.5 11.2109C16.2561 11.2109 15.0402 11.5798 14.006 12.2708C12.9718 12.9619 12.1657 13.9441 11.6897 15.0933C11.2137 16.2425 11.0891 17.507 11.3318 18.7269C11.5744 19.9469 12.1734 21.0675 13.053 21.947C13.9325 22.8266 15.0531 23.4256 16.2731 23.6682C17.493 23.9109 18.7575 23.7863 19.9067 23.3103C21.0559 22.8343 22.0381 22.0282 22.7292 20.994C23.4202 19.9598 23.7891 18.7439 23.7891 17.5C23.7869 15.8327 23.1236 14.2343 21.9446 13.0554C20.7657 11.8764 19.1673 11.2131 17.5 11.2109ZM17.5 22.1484C16.5806 22.1484 15.6819 21.8758 14.9175 21.365C14.153 20.8543 13.5572 20.1283 13.2054 19.2789C12.8536 18.4295 12.7615 17.4948 12.9409 16.5931C13.1202 15.6914 13.563 14.8632 14.2131 14.2131C14.8632 13.563 15.6914 13.1202 16.5931 12.9409C17.4948 12.7615 18.4295 12.8536 19.2789 13.2054C20.1283 13.5572 20.8543 14.153 21.365 14.9175C21.8758 15.6819 22.1484 16.5806 22.1484 17.5C22.1484 18.7328 21.6587 19.9152 20.7869 20.7869C19.9152 21.6587 18.7328 22.1484 17.5 22.1484ZM24.0625 3.55469H10.9375C8.98012 3.55686 7.10354 4.33539 5.71946 5.71946C4.33539 7.10354 3.55686 8.98012 3.55469 10.9375V24.0625C3.55686 26.0199 4.33539 27.8965 5.71946 29.2805C7.10354 30.6646 8.98012 31.4431 10.9375 31.4453H24.0625C26.0199 31.4431 27.8965 30.6646 29.2805 29.2805C30.6646 27.8965 31.4431 26.0199 31.4453 24.0625V10.9375C31.4431 8.98012 30.6646 7.10354 29.2805 5.71946C27.8965 4.33539 26.0199 3.55686 24.0625 3.55469ZM29.8047 24.0625C29.8047 25.5854 29.1997 27.046 28.1228 28.1228C27.046 29.1997 25.5854 29.8047 24.0625 29.8047H10.9375C9.41458 29.8047 7.95403 29.1997 6.87716 28.1228C5.80029 27.046 5.19531 25.5854 5.19531 24.0625V10.9375C5.19531 9.41458 5.80029 7.95403 6.87716 6.87716C7.95403 5.80029 9.41458 5.19531 10.9375 5.19531H24.0625C25.5854 5.19531 27.046 5.80029 28.1228 6.87716C29.1997 7.95403 29.8047 9.41458 29.8047 10.9375V24.0625ZM25.9766 10.3906C25.9766 10.661 25.8964 10.9254 25.7462 11.1502C25.5959 11.375 25.3824 11.5503 25.1326 11.6537C24.8828 11.7572 24.6079 11.7843 24.3427 11.7315C24.0774 11.6788 23.8338 11.5486 23.6426 11.3574C23.4514 11.1662 23.3212 10.9226 23.2685 10.6574C23.2157 10.3921 23.2428 10.1172 23.3463 9.86742C23.4497 9.6176 23.625 9.40408 23.8498 9.25385C24.0746 9.10362 24.339 9.02344 24.6094 9.02344C24.972 9.02344 25.3197 9.16748 25.5761 9.42388C25.8325 9.68027 25.9766 10.028 25.9766 10.3906Z" fill="#FDFDFD"/>
</svg>
