<svg width="218" height="23" viewBox="0 0 218 23" fill="none" xmlns="http://www.w3.org/2000/svg">
<path d="M213.891 3.20312V7.90625H217.234V9H213.891V18.2812C213.891 19.2083 214.021 19.8333 214.281 20.1562C214.552 20.4792 214.896 20.6406 215.312 20.6406C215.656 20.6406 215.99 20.5365 216.312 20.3281C216.635 20.1094 216.885 19.7917 217.062 19.375H217.672C217.307 20.3958 216.792 21.1667 216.125 21.6875C215.458 22.1979 214.771 22.4531 214.062 22.4531C213.583 22.4531 213.115 22.3229 212.656 22.0625C212.198 21.7917 211.859 21.4115 211.641 20.9219C211.422 20.4219 211.312 19.6562 211.312 18.625V9H209.047V8.48438C209.62 8.25521 210.203 7.86979 210.797 7.32812C211.401 6.77604 211.938 6.125 212.406 5.375C212.646 4.97917 212.979 4.25521 213.406 3.20312H213.891Z" fill="#FDFDFD"/>
<path d="M207.672 16.7812C207.286 18.6667 206.531 20.1198 205.406 21.1406C204.281 22.151 203.036 22.6562 201.672 22.6562C200.047 22.6562 198.63 21.974 197.422 20.6094C196.214 19.2448 195.609 17.401 195.609 15.0781C195.609 12.8281 196.276 11 197.609 9.59375C198.953 8.1875 200.562 7.48438 202.438 7.48438C203.844 7.48438 205 7.85938 205.906 8.60938C206.812 9.34896 207.266 10.1198 207.266 10.9219C207.266 11.3177 207.135 11.6406 206.875 11.8906C206.625 12.1302 206.271 12.25 205.812 12.25C205.198 12.25 204.734 12.0521 204.422 11.6562C204.245 11.4375 204.125 11.0208 204.062 10.4062C204.01 9.79167 203.802 9.32292 203.438 9C203.073 8.6875 202.568 8.53125 201.922 8.53125C200.88 8.53125 200.042 8.91667 199.406 9.6875C198.562 10.7083 198.141 12.0573 198.141 13.7344C198.141 15.4427 198.557 16.9531 199.391 18.2656C200.234 19.5677 201.37 20.2188 202.797 20.2188C203.818 20.2188 204.734 19.8698 205.547 19.1719C206.12 18.6927 206.677 17.8229 207.219 16.5625L207.672 16.7812Z" fill="#FDFDFD"/>
<path d="M183.703 13.2969C183.693 15.4219 184.208 17.0885 185.25 18.2969C186.292 19.5052 187.516 20.1094 188.922 20.1094C189.859 20.1094 190.672 19.8542 191.359 19.3438C192.057 18.8229 192.641 17.9375 193.109 16.6875L193.594 17C193.375 18.4271 192.74 19.7292 191.688 20.9062C190.635 22.0729 189.318 22.6562 187.734 22.6562C186.016 22.6562 184.542 21.9896 183.312 20.6562C182.094 19.3125 181.484 17.5104 181.484 15.25C181.484 12.8021 182.109 10.8958 183.359 9.53125C184.62 8.15625 186.198 7.46875 188.094 7.46875C189.698 7.46875 191.016 8 192.047 9.0625C193.078 10.1146 193.594 11.526 193.594 13.2969H183.703ZM183.703 12.3906H190.328C190.276 11.474 190.167 10.8281 190 10.4531C189.74 9.86979 189.349 9.41146 188.828 9.07812C188.318 8.74479 187.781 8.57812 187.219 8.57812C186.354 8.57812 185.578 8.91667 184.891 9.59375C184.214 10.2604 183.818 11.1927 183.703 12.3906Z" fill="#FDFDFD"/>
<path d="M176.547 3.20312V7.90625H179.891V9H176.547V18.2812C176.547 19.2083 176.677 19.8333 176.938 20.1562C177.208 20.4792 177.552 20.6406 177.969 20.6406C178.312 20.6406 178.646 20.5365 178.969 20.3281C179.292 20.1094 179.542 19.7917 179.719 19.375H180.328C179.964 20.3958 179.448 21.1667 178.781 21.6875C178.115 22.1979 177.427 22.4531 176.719 22.4531C176.24 22.4531 175.771 22.3229 175.312 22.0625C174.854 21.7917 174.516 21.4115 174.297 20.9219C174.078 20.4219 173.969 19.6562 173.969 18.625V9H171.703V8.48438C172.276 8.25521 172.859 7.86979 173.453 7.32812C174.057 6.77604 174.594 6.125 175.062 5.375C175.302 4.97917 175.635 4.25521 176.062 3.20312H176.547Z" fill="#FDFDFD"/>
<path d="M167.125 0C167.562 0 167.932 0.15625 168.234 0.46875C168.547 0.770833 168.703 1.14062 168.703 1.57812C168.703 2.01562 168.547 2.39062 168.234 2.70312C167.932 3.01562 167.562 3.17188 167.125 3.17188C166.688 3.17188 166.312 3.01562 166 2.70312C165.688 2.39062 165.531 2.01562 165.531 1.57812C165.531 1.14062 165.682 0.770833 165.984 0.46875C166.297 0.15625 166.677 0 167.125 0ZM168.422 7.48438V18.9844C168.422 19.8802 168.484 20.4792 168.609 20.7812C168.745 21.0729 168.938 21.2917 169.188 21.4375C169.448 21.5833 169.917 21.6562 170.594 21.6562V22.2188H163.641V21.6562C164.339 21.6562 164.807 21.5885 165.047 21.4531C165.286 21.3177 165.474 21.0938 165.609 20.7812C165.755 20.4688 165.828 19.8698 165.828 18.9844V13.4688C165.828 11.9167 165.781 10.9115 165.688 10.4531C165.615 10.1198 165.5 9.89062 165.344 9.76562C165.188 9.63021 164.974 9.5625 164.703 9.5625C164.411 9.5625 164.057 9.64062 163.641 9.79688L163.422 9.23438L167.734 7.48438H168.422Z" fill="#FDFDFD"/>
<path d="M151.688 0V10.4688C152.844 9.19792 153.76 8.38542 154.438 8.03125C155.115 7.66667 155.792 7.48438 156.469 7.48438C157.281 7.48438 157.979 7.70833 158.562 8.15625C159.146 8.60417 159.578 9.30729 159.859 10.2656C160.057 10.9323 160.156 12.151 160.156 13.9219V18.9844C160.156 19.8906 160.229 20.5104 160.375 20.8438C160.479 21.0938 160.656 21.2917 160.906 21.4375C161.156 21.5833 161.615 21.6562 162.281 21.6562V22.2188H155.25V21.6562H155.578C156.245 21.6562 156.708 21.5573 156.969 21.3594C157.229 21.151 157.411 20.849 157.516 20.4531C157.547 20.2865 157.562 19.7969 157.562 18.9844V13.9219C157.562 12.3594 157.479 11.3333 157.312 10.8438C157.156 10.3542 156.901 9.98958 156.547 9.75C156.193 9.5 155.766 9.375 155.266 9.375C154.755 9.375 154.224 9.51042 153.672 9.78125C153.12 10.0521 152.458 10.599 151.688 11.4219V18.9844C151.688 19.9635 151.74 20.5729 151.844 20.8125C151.958 21.0521 152.161 21.2552 152.453 21.4219C152.755 21.5781 153.271 21.6562 154 21.6562V22.2188H146.906V21.6562C147.542 21.6562 148.042 21.5573 148.406 21.3594C148.615 21.2552 148.781 21.0573 148.906 20.7656C149.031 20.474 149.094 19.8802 149.094 18.9844V6.03125C149.094 4.39583 149.052 3.39062 148.969 3.01562C148.896 2.64062 148.776 2.38542 148.609 2.25C148.453 2.11458 148.24 2.04688 147.969 2.04688C147.75 2.04688 147.396 2.13021 146.906 2.29688L146.688 1.75L150.969 0H151.688Z" fill="#FDFDFD"/>
<path d="M145.422 16.7812C145.036 18.6667 144.281 20.1198 143.156 21.1406C142.031 22.151 140.786 22.6562 139.422 22.6562C137.797 22.6562 136.38 21.974 135.172 20.6094C133.964 19.2448 133.359 17.401 133.359 15.0781C133.359 12.8281 134.026 11 135.359 9.59375C136.703 8.1875 138.312 7.48438 140.188 7.48438C141.594 7.48438 142.75 7.85938 143.656 8.60938C144.562 9.34896 145.016 10.1198 145.016 10.9219C145.016 11.3177 144.885 11.6406 144.625 11.8906C144.375 12.1302 144.021 12.25 143.562 12.25C142.948 12.25 142.484 12.0521 142.172 11.6562C141.995 11.4375 141.875 11.0208 141.812 10.4062C141.76 9.79167 141.552 9.32292 141.188 9C140.823 8.6875 140.318 8.53125 139.672 8.53125C138.63 8.53125 137.792 8.91667 137.156 9.6875C136.312 10.7083 135.891 12.0573 135.891 13.7344C135.891 15.4427 136.307 16.9531 137.141 18.2656C137.984 19.5677 139.12 20.2188 140.547 20.2188C141.568 20.2188 142.484 19.8698 143.297 19.1719C143.87 18.6927 144.427 17.8229 144.969 16.5625L145.422 16.7812Z" fill="#FDFDFD"/>
<path d="M126.797 7.48438V10.7031C127.995 8.55729 129.224 7.48438 130.484 7.48438C131.057 7.48438 131.531 7.66146 131.906 8.01562C132.281 8.35938 132.469 8.76042 132.469 9.21875C132.469 9.625 132.333 9.96875 132.062 10.25C131.792 10.5312 131.469 10.6719 131.094 10.6719C130.729 10.6719 130.318 10.4948 129.859 10.1406C129.411 9.77604 129.078 9.59375 128.859 9.59375C128.672 9.59375 128.469 9.69792 128.25 9.90625C127.781 10.3333 127.297 11.0365 126.797 12.0156V18.875C126.797 19.6667 126.896 20.2656 127.094 20.6719C127.229 20.9531 127.469 21.1875 127.812 21.375C128.156 21.5625 128.651 21.6562 129.297 21.6562V22.2188H121.969V21.6562C122.698 21.6562 123.24 21.5417 123.594 21.3125C123.854 21.1458 124.036 20.8802 124.141 20.5156C124.193 20.3385 124.219 19.8333 124.219 19V13.4531C124.219 11.7865 124.182 10.7969 124.109 10.4844C124.047 10.1615 123.922 9.92708 123.734 9.78125C123.557 9.63542 123.333 9.5625 123.062 9.5625C122.74 9.5625 122.375 9.64062 121.969 9.79688L121.812 9.23438L126.141 7.48438H126.797Z" fill="#FDFDFD"/>
<path d="M116.5 20.1562C115.031 21.2917 114.109 21.9479 113.734 22.125C113.172 22.3854 112.573 22.5156 111.938 22.5156C110.948 22.5156 110.13 22.1771 109.484 21.5C108.849 20.8229 108.531 19.9323 108.531 18.8281C108.531 18.1302 108.688 17.526 109 17.0156C109.427 16.3073 110.167 15.6406 111.219 15.0156C112.281 14.3906 114.042 13.6302 116.5 12.7344V12.1719C116.5 10.7448 116.271 9.76562 115.812 9.23438C115.365 8.70312 114.708 8.4375 113.844 8.4375C113.188 8.4375 112.667 8.61458 112.281 8.96875C111.885 9.32292 111.688 9.72917 111.688 10.1875L111.719 11.0938C111.719 11.5729 111.594 11.9427 111.344 12.2031C111.104 12.4635 110.786 12.5938 110.391 12.5938C110.005 12.5938 109.688 12.4583 109.438 12.1875C109.198 11.9167 109.078 11.5469 109.078 11.0781C109.078 10.1823 109.536 9.35938 110.453 8.60938C111.37 7.85938 112.656 7.48438 114.312 7.48438C115.583 7.48438 116.625 7.69792 117.438 8.125C118.052 8.44792 118.505 8.95312 118.797 9.64062C118.984 10.0885 119.078 11.0052 119.078 12.3906V17.25C119.078 18.6146 119.104 19.4531 119.156 19.7656C119.208 20.0677 119.292 20.2708 119.406 20.375C119.531 20.4792 119.672 20.5312 119.828 20.5312C119.995 20.5312 120.141 20.4948 120.266 20.4219C120.484 20.2865 120.906 19.9062 121.531 19.2812V20.1562C120.365 21.7188 119.25 22.5 118.188 22.5C117.677 22.5 117.271 22.3229 116.969 21.9688C116.667 21.6146 116.51 21.0104 116.5 20.1562ZM116.5 19.1406V13.6875C114.927 14.3125 113.911 14.7552 113.453 15.0156C112.63 15.474 112.042 15.9531 111.688 16.4531C111.333 16.9531 111.156 17.5 111.156 18.0938C111.156 18.8438 111.38 19.4688 111.828 19.9688C112.276 20.4583 112.792 20.7031 113.375 20.7031C114.167 20.7031 115.208 20.1823 116.5 19.1406Z" fill="#FDFDFD"/>
<path d="M94.2812 20.1562C92.8125 21.2917 91.8906 21.9479 91.5156 22.125C90.9531 22.3854 90.3542 22.5156 89.7188 22.5156C88.7292 22.5156 87.9115 22.1771 87.2656 21.5C86.6302 20.8229 86.3125 19.9323 86.3125 18.8281C86.3125 18.1302 86.4688 17.526 86.7812 17.0156C87.2083 16.3073 87.9479 15.6406 89 15.0156C90.0625 14.3906 91.8229 13.6302 94.2812 12.7344V12.1719C94.2812 10.7448 94.0521 9.76562 93.5938 9.23438C93.1458 8.70312 92.4896 8.4375 91.625 8.4375C90.9688 8.4375 90.4479 8.61458 90.0625 8.96875C89.6667 9.32292 89.4688 9.72917 89.4688 10.1875L89.5 11.0938C89.5 11.5729 89.375 11.9427 89.125 12.2031C88.8854 12.4635 88.5677 12.5938 88.1719 12.5938C87.7865 12.5938 87.4688 12.4583 87.2188 12.1875C86.9792 11.9167 86.8594 11.5469 86.8594 11.0781C86.8594 10.1823 87.3177 9.35938 88.2344 8.60938C89.151 7.85938 90.4375 7.48438 92.0938 7.48438C93.3646 7.48438 94.4062 7.69792 95.2188 8.125C95.8333 8.44792 96.2865 8.95312 96.5781 9.64062C96.7656 10.0885 96.8594 11.0052 96.8594 12.3906V17.25C96.8594 18.6146 96.8854 19.4531 96.9375 19.7656C96.9896 20.0677 97.0729 20.2708 97.1875 20.375C97.3125 20.4792 97.4531 20.5312 97.6094 20.5312C97.776 20.5312 97.9219 20.4948 98.0469 20.4219C98.2656 20.2865 98.6875 19.9062 99.3125 19.2812V20.1562C98.1458 21.7188 97.0312 22.5 95.9688 22.5C95.4583 22.5 95.0521 22.3229 94.75 21.9688C94.4479 21.6146 94.2917 21.0104 94.2812 20.1562ZM94.2812 19.1406V13.6875C92.7083 14.3125 91.6927 14.7552 91.2344 15.0156C90.4115 15.474 89.8229 15.9531 89.4688 16.4531C89.1146 16.9531 88.9375 17.5 88.9375 18.0938C88.9375 18.8438 89.1615 19.4688 89.6094 19.9688C90.0573 20.4583 90.5729 20.7031 91.1562 20.7031C91.9479 20.7031 92.9896 20.1823 94.2812 19.1406Z" fill="#FDFDFD"/>
<path d="M82.9531 7.48438V12.3594H82.4375C82.0417 10.8281 81.5312 9.78646 80.9062 9.23438C80.2917 8.68229 79.5052 8.40625 78.5469 8.40625C77.8177 8.40625 77.2292 8.59896 76.7812 8.98438C76.3333 9.36979 76.1094 9.79688 76.1094 10.2656C76.1094 10.849 76.276 11.349 76.6094 11.7656C76.9323 12.1927 77.5885 12.6458 78.5781 13.125L80.8594 14.2344C82.974 15.2656 84.0312 16.625 84.0312 18.3125C84.0312 19.6146 83.5365 20.6667 82.5469 21.4688C81.5677 22.2604 80.4688 22.6562 79.25 22.6562C78.375 22.6562 77.375 22.5 76.25 22.1875C75.9062 22.0833 75.625 22.0312 75.4062 22.0312C75.1667 22.0312 74.9792 22.1667 74.8438 22.4375H74.3281V17.3281H74.8438C75.1354 18.7865 75.6927 19.8854 76.5156 20.625C77.3385 21.3646 78.2604 21.7344 79.2812 21.7344C80 21.7344 80.5833 21.526 81.0312 21.1094C81.4896 20.6823 81.7188 20.1719 81.7188 19.5781C81.7188 18.8594 81.4635 18.2552 80.9531 17.7656C80.4531 17.276 79.4479 16.6562 77.9375 15.9062C76.4271 15.1562 75.4375 14.4792 74.9688 13.875C74.5 13.2812 74.2656 12.5312 74.2656 11.625C74.2656 10.4479 74.6667 9.46354 75.4688 8.67188C76.2812 7.88021 77.3281 7.48438 78.6094 7.48438C79.1719 7.48438 79.8542 7.60417 80.6562 7.84375C81.1875 8 81.5417 8.07812 81.7188 8.07812C81.8854 8.07812 82.0156 8.04167 82.1094 7.96875C82.2031 7.89583 82.3125 7.73438 82.4375 7.48438H82.9531Z" fill="#FDFDFD"/>
<path d="M67.5938 20.1562C66.125 21.2917 65.2031 21.9479 64.8281 22.125C64.2656 22.3854 63.6667 22.5156 63.0312 22.5156C62.0417 22.5156 61.224 22.1771 60.5781 21.5C59.9427 20.8229 59.625 19.9323 59.625 18.8281C59.625 18.1302 59.7812 17.526 60.0938 17.0156C60.5208 16.3073 61.2604 15.6406 62.3125 15.0156C63.375 14.3906 65.1354 13.6302 67.5938 12.7344V12.1719C67.5938 10.7448 67.3646 9.76562 66.9062 9.23438C66.4583 8.70312 65.8021 8.4375 64.9375 8.4375C64.2812 8.4375 63.7604 8.61458 63.375 8.96875C62.9792 9.32292 62.7812 9.72917 62.7812 10.1875L62.8125 11.0938C62.8125 11.5729 62.6875 11.9427 62.4375 12.2031C62.1979 12.4635 61.8802 12.5938 61.4844 12.5938C61.099 12.5938 60.7812 12.4583 60.5312 12.1875C60.2917 11.9167 60.1719 11.5469 60.1719 11.0781C60.1719 10.1823 60.6302 9.35938 61.5469 8.60938C62.4635 7.85938 63.75 7.48438 65.4062 7.48438C66.6771 7.48438 67.7188 7.69792 68.5312 8.125C69.1458 8.44792 69.599 8.95312 69.8906 9.64062C70.0781 10.0885 70.1719 11.0052 70.1719 12.3906V17.25C70.1719 18.6146 70.1979 19.4531 70.25 19.7656C70.3021 20.0677 70.3854 20.2708 70.5 20.375C70.625 20.4792 70.7656 20.5312 70.9219 20.5312C71.0885 20.5312 71.2344 20.4948 71.3594 20.4219C71.5781 20.2865 72 19.9062 72.625 19.2812V20.1562C71.4583 21.7188 70.3438 22.5 69.2812 22.5C68.7708 22.5 68.3646 22.3229 68.0625 21.9688C67.7604 21.6146 67.6042 21.0104 67.5938 20.1562ZM67.5938 19.1406V13.6875C66.0208 14.3125 65.0052 14.7552 64.5469 15.0156C63.724 15.474 63.1354 15.9531 62.7812 16.4531C62.4271 16.9531 62.25 17.5 62.25 18.0938C62.25 18.8438 62.474 19.4688 62.9219 19.9688C63.3698 20.4583 63.8854 20.7031 64.4688 20.7031C65.2604 20.7031 66.3021 20.1823 67.5938 19.1406Z" fill="#FDFDFD"/>
<path d="M56.4062 0.546875L56.8906 7.75H56.4062C55.7604 5.59375 54.8385 4.04167 53.6406 3.09375C52.4427 2.14583 51.0052 1.67188 49.3281 1.67188C47.9219 1.67188 46.651 2.03125 45.5156 2.75C44.3802 3.45833 43.4844 4.59375 42.8281 6.15625C42.1823 7.71875 41.8594 9.66146 41.8594 11.9844C41.8594 13.901 42.1667 15.5625 42.7812 16.9688C43.3958 18.375 44.3177 19.4531 45.5469 20.2031C46.7865 20.9531 48.1979 21.3281 49.7812 21.3281C51.1562 21.3281 52.3698 21.0365 53.4219 20.4531C54.474 19.8594 55.6302 18.6875 56.8906 16.9375L57.375 17.25C56.3125 19.1354 55.0729 20.5156 53.6562 21.3906C52.2396 22.2656 50.5573 22.7031 48.6094 22.7031C45.099 22.7031 42.3802 21.401 40.4531 18.7969C39.0156 16.8594 38.2969 14.5781 38.2969 11.9531C38.2969 9.83854 38.7708 7.89583 39.7188 6.125C40.6667 4.35417 41.9688 2.98438 43.625 2.01562C45.2917 1.03646 47.1094 0.546875 49.0781 0.546875C50.6094 0.546875 52.1198 0.921875 53.6094 1.67188C54.0469 1.90104 54.3594 2.01562 54.5469 2.01562C54.8281 2.01562 55.0729 1.91667 55.2812 1.71875C55.5521 1.4375 55.7448 1.04688 55.8594 0.546875H56.4062Z" fill="#FDFDFD"/>
<path d="M32.0312 20.1562C30.5625 21.2917 29.6406 21.9479 29.2656 22.125C28.7031 22.3854 28.1042 22.5156 27.4688 22.5156C26.4792 22.5156 25.6615 22.1771 25.0156 21.5C24.3802 20.8229 24.0625 19.9323 24.0625 18.8281C24.0625 18.1302 24.2188 17.526 24.5312 17.0156C24.9583 16.3073 25.6979 15.6406 26.75 15.0156C27.8125 14.3906 29.5729 13.6302 32.0312 12.7344V12.1719C32.0312 10.7448 31.8021 9.76562 31.3438 9.23438C30.8958 8.70312 30.2396 8.4375 29.375 8.4375C28.7188 8.4375 28.1979 8.61458 27.8125 8.96875C27.4167 9.32292 27.2188 9.72917 27.2188 10.1875L27.25 11.0938C27.25 11.5729 27.125 11.9427 26.875 12.2031C26.6354 12.4635 26.3177 12.5938 25.9219 12.5938C25.5365 12.5938 25.2188 12.4583 24.9688 12.1875C24.7292 11.9167 24.6094 11.5469 24.6094 11.0781C24.6094 10.1823 25.0677 9.35938 25.9844 8.60938C26.901 7.85938 28.1875 7.48438 29.8438 7.48438C31.1146 7.48438 32.1562 7.69792 32.9688 8.125C33.5833 8.44792 34.0365 8.95312 34.3281 9.64062C34.5156 10.0885 34.6094 11.0052 34.6094 12.3906V17.25C34.6094 18.6146 34.6354 19.4531 34.6875 19.7656C34.7396 20.0677 34.8229 20.2708 34.9375 20.375C35.0625 20.4792 35.2031 20.5312 35.3594 20.5312C35.526 20.5312 35.6719 20.4948 35.7969 20.4219C36.0156 20.2865 36.4375 19.9062 37.0625 19.2812V20.1562C35.8958 21.7188 34.7812 22.5 33.7188 22.5C33.2083 22.5 32.8021 22.3229 32.5 21.9688C32.1979 21.6146 32.0417 21.0104 32.0312 20.1562ZM32.0312 19.1406V13.6875C30.4583 14.3125 29.4427 14.7552 28.9844 15.0156C28.1615 15.474 27.5729 15.9531 27.2188 16.4531C26.8646 16.9531 26.6875 17.5 26.6875 18.0938C26.6875 18.8438 26.9115 19.4688 27.3594 19.9688C27.8073 20.4583 28.3229 20.7031 28.9062 20.7031C29.6979 20.7031 30.7396 20.1823 32.0312 19.1406Z" fill="#FDFDFD"/>
<path d="M0 7.90625H6V8.48438C5.44792 8.52604 5.08333 8.625 4.90625 8.78125C4.73958 8.9375 4.65625 9.16146 4.65625 9.45312C4.65625 9.77604 4.74479 10.1667 4.92188 10.625L7.98438 18.8594L11.0625 12.1562L10.25 10.0469C10 9.42188 9.67188 8.98958 9.26562 8.75C9.03646 8.60417 8.60938 8.51562 7.98438 8.48438V7.90625H14.7969V8.48438C14.0469 8.51562 13.5156 8.65104 13.2031 8.89062C12.9948 9.05729 12.8906 9.32292 12.8906 9.6875C12.8906 9.89583 12.9323 10.1094 13.0156 10.3281L16.2656 18.5469L19.2812 10.625C19.4896 10.0625 19.5938 9.61458 19.5938 9.28125C19.5938 9.08333 19.4896 8.90625 19.2812 8.75C19.0833 8.59375 18.6875 8.50521 18.0938 8.48438V7.90625H22.6094V8.48438C21.7031 8.61979 21.0365 9.23438 20.6094 10.3281L15.8281 22.6562H15.1875L11.6094 13.5156L7.4375 22.6562H6.85938L2.26562 10.625C1.96354 9.86458 1.66667 9.35417 1.375 9.09375C1.08333 8.82292 0.625 8.61979 0 8.48438V7.90625Z" fill="#FDFDFD"/>
</svg>
