<svg width="125" height="14" viewBox="0 0 125 14" fill="none" xmlns="http://www.w3.org/2000/svg">
<path d="M122.828 1.83936V4.54017H124.749V5.16826H122.828V10.4981C122.828 11.0305 122.903 11.3894 123.053 11.5748C123.208 11.7603 123.406 11.853 123.645 11.853C123.842 11.853 124.034 11.7932 124.219 11.6735C124.405 11.5479 124.548 11.3655 124.65 11.1262H125C124.79 11.7124 124.494 12.1551 124.112 12.4542C123.729 12.7473 123.334 12.8938 122.927 12.8938C122.652 12.8938 122.383 12.8191 122.12 12.6695C121.856 12.514 121.662 12.2957 121.536 12.0145C121.411 11.7274 121.348 11.2877 121.348 10.6955V5.16826H120.047V4.87216C120.376 4.74056 120.711 4.51923 121.052 4.20817C121.399 3.89114 121.707 3.51727 121.976 3.08657C122.114 2.85926 122.305 2.44352 122.55 1.83936H122.828Z" fill="#181818"/>
<path d="M119.258 9.63667C119.036 10.7194 118.603 11.5539 117.957 12.1401C117.31 12.7203 116.596 13.0104 115.812 13.0104C114.879 13.0104 114.065 12.6186 113.371 11.835C112.678 11.0514 112.331 9.99259 112.331 8.65863C112.331 7.36655 112.713 6.31673 113.479 5.50918C114.251 4.70163 115.175 4.29785 116.252 4.29785C117.059 4.29785 117.723 4.5132 118.244 4.94389C118.764 5.36861 119.024 5.81126 119.024 6.27187C119.024 6.49918 118.95 6.68462 118.8 6.82818C118.656 6.96576 118.453 7.03456 118.19 7.03456C117.837 7.03456 117.571 6.9209 117.391 6.69359C117.29 6.56797 117.221 6.3287 117.185 5.97577C117.155 5.62283 117.035 5.35365 116.826 5.16821C116.617 4.98876 116.326 4.89903 115.956 4.89903C115.357 4.89903 114.876 5.12036 114.511 5.56302C114.026 6.14924 113.784 6.92389 113.784 7.88697C113.784 8.868 114.023 9.73537 114.502 10.4891C114.987 11.2368 115.639 11.6107 116.458 11.6107C117.044 11.6107 117.571 11.4103 118.037 11.0095C118.366 10.7343 118.686 10.2349 118.997 9.51105L119.258 9.63667Z" fill="#181818"/>
<path d="M105.493 7.63592C105.487 8.85622 105.783 9.81332 106.382 10.5072C106.98 11.2011 107.683 11.5481 108.49 11.5481C109.029 11.5481 109.495 11.4015 109.89 11.1084C110.291 10.8093 110.626 10.3008 110.895 9.58301L111.173 9.76247C111.048 10.582 110.683 11.3297 110.078 12.0057C109.474 12.6756 108.718 13.0106 107.808 13.0106C106.821 13.0106 105.975 12.6278 105.269 11.8621C104.569 11.0904 104.219 10.0556 104.219 8.75752C104.219 7.35178 104.578 6.2571 105.296 5.47347C106.02 4.68387 106.926 4.28906 108.015 4.28906C108.936 4.28906 109.693 4.59414 110.285 5.20429C110.877 5.80846 111.173 6.619 111.173 7.63592H105.493ZM105.493 7.11549H109.298C109.268 6.58909 109.205 6.21821 109.109 6.00287C108.96 5.66788 108.736 5.40468 108.436 5.21326C108.143 5.02184 107.835 4.92613 107.512 4.92613C107.016 4.92613 106.57 5.12054 106.175 5.50936C105.786 5.8922 105.559 6.42758 105.493 7.11549Z" fill="#181818"/>
<path d="M101.384 1.83936V4.54017H103.304V5.16826H101.384V10.4981C101.384 11.0305 101.459 11.3894 101.608 11.5748C101.764 11.7603 101.961 11.853 102.201 11.853C102.398 11.853 102.589 11.7932 102.775 11.6735C102.96 11.5479 103.104 11.3655 103.206 11.1262H103.556C103.346 11.7124 103.05 12.1551 102.667 12.4542C102.284 12.7473 101.89 12.8938 101.483 12.8938C101.208 12.8938 100.938 12.8191 100.675 12.6695C100.412 12.514 100.218 12.2957 100.092 12.0145C99.9664 11.7274 99.9036 11.2877 99.9036 10.6955V5.16826H98.6025V4.87216C98.9315 4.74056 99.2665 4.51923 99.6075 4.20817C99.9544 3.89114 100.263 3.51727 100.532 3.08657C100.669 2.85926 100.861 2.44352 101.106 1.83936H101.384Z" fill="#181818"/>
<path d="M95.9727 0C96.224 0 96.4363 0.089728 96.6098 0.269184C96.7893 0.442658 96.879 0.655014 96.879 0.906253C96.879 1.15749 96.7893 1.37284 96.6098 1.55229C96.4363 1.73175 96.224 1.82148 95.9727 1.82148C95.7215 1.82148 95.5062 1.73175 95.3267 1.55229C95.1472 1.37284 95.0575 1.15749 95.0575 0.906253C95.0575 0.655014 95.1443 0.442658 95.3177 0.269184C95.4972 0.089728 95.7155 0 95.9727 0ZM96.7175 4.29797V10.902C96.7175 11.4164 96.7534 11.7604 96.8252 11.9338C96.9029 12.1013 97.0136 12.2269 97.1572 12.3107C97.3067 12.3944 97.5759 12.4363 97.9647 12.4363V12.7593H93.9718V12.4363C94.3726 12.4363 94.6418 12.3974 94.7794 12.3197C94.9169 12.2419 95.0246 12.1133 95.1024 11.9338C95.1861 11.7544 95.228 11.4104 95.228 10.902V7.73455C95.228 6.84326 95.2011 6.26601 95.1472 6.0028C95.1054 5.81138 95.0396 5.67978 94.9498 5.608C94.8601 5.53024 94.7375 5.49135 94.582 5.49135C94.4145 5.49135 94.2111 5.53622 93.9718 5.62595L93.8462 5.30293L96.3227 4.29797H96.7175Z" fill="#181818"/>
<path d="M87.1081 0V6.01178C87.7721 5.28199 88.2985 4.8154 88.6873 4.61202C89.0761 4.40265 89.465 4.29797 89.8538 4.29797C90.3204 4.29797 90.7212 4.42658 91.0561 4.6838C91.3911 4.94102 91.6394 5.3448 91.8009 5.89513C91.9145 6.27797 91.9714 6.97785 91.9714 7.99477V10.902C91.9714 11.4224 92.0132 11.7783 92.097 11.9697C92.1568 12.1133 92.2585 12.2269 92.4021 12.3107C92.5456 12.3944 92.8088 12.4363 93.1917 12.4363V12.7593H89.1539V12.4363H89.3423C89.7252 12.4363 89.9914 12.3795 90.1409 12.2658C90.2905 12.1462 90.3951 11.9727 90.455 11.7454C90.4729 11.6497 90.4819 11.3685 90.4819 10.902V7.99477C90.4819 7.09749 90.434 6.50827 90.3383 6.22712C90.2486 5.94598 90.102 5.73661 89.8987 5.59903C89.6953 5.45546 89.45 5.38368 89.1629 5.38368C88.8698 5.38368 88.5647 5.46144 88.2477 5.61697C87.9306 5.7725 87.5508 6.08655 87.1081 6.55912V10.902C87.1081 11.4642 87.138 11.8142 87.1978 11.9518C87.2636 12.0894 87.3803 12.206 87.5478 12.3017C87.7213 12.3914 88.0174 12.4363 88.4361 12.4363V12.7593H84.3624V12.4363C84.7273 12.4363 85.0145 12.3795 85.2238 12.2658C85.3435 12.206 85.4392 12.0923 85.511 11.9249C85.5827 11.7574 85.6186 11.4164 85.6186 10.902V3.4635C85.6186 2.52435 85.5947 1.9471 85.5468 1.73175C85.505 1.5164 85.4362 1.36985 85.3405 1.29208C85.2507 1.21432 85.1281 1.17544 84.9726 1.17544C84.847 1.17544 84.6436 1.22329 84.3624 1.319L84.2368 1.00495L86.6954 0H87.1081Z" fill="#181818"/>
<path d="M83.51 9.63667C83.2887 10.7194 82.855 11.5539 82.209 12.1401C81.5629 12.7203 80.8481 13.0104 80.0645 13.0104C79.1313 13.0104 78.3177 12.6186 77.6239 11.835C76.93 11.0514 76.583 9.99259 76.583 8.65863C76.583 7.36655 76.9658 6.31673 77.7315 5.50918C78.5032 4.70163 79.4274 4.29785 80.5041 4.29785C81.3117 4.29785 81.9757 4.5132 82.4961 4.94389C83.0165 5.36861 83.2767 5.81126 83.2767 6.27187C83.2767 6.49918 83.2019 6.68462 83.0524 6.82818C82.9088 6.96576 82.7054 7.03456 82.4422 7.03456C82.0893 7.03456 81.8231 6.9209 81.6437 6.69359C81.542 6.56797 81.4732 6.3287 81.4373 5.97577C81.4074 5.62283 81.2877 5.35365 81.0784 5.16821C80.869 4.98876 80.5789 4.89903 80.208 4.89903C79.6098 4.89903 79.1283 5.12036 78.7634 5.56302C78.2789 6.14924 78.0366 6.92389 78.0366 7.88697C78.0366 8.868 78.2759 9.73537 78.7544 10.4891C79.239 11.2368 79.891 11.6107 80.7105 11.6107C81.2967 11.6107 81.8231 11.4103 82.2897 11.0095C82.6187 10.7343 82.9387 10.2349 83.2498 9.51105L83.51 9.63667Z" fill="#181818"/>
<path d="M72.8145 4.29785V6.14625C73.5024 4.91398 74.2082 4.29785 74.9321 4.29785C75.2611 4.29785 75.5332 4.39954 75.7486 4.60293C75.9639 4.80033 76.0716 5.03063 76.0716 5.29383C76.0716 5.52713 75.9938 5.72453 75.8383 5.88604C75.6828 6.04755 75.4973 6.1283 75.282 6.1283C75.0726 6.1283 74.8363 6.02661 74.5731 5.82323C74.3159 5.61386 74.1245 5.50918 73.9989 5.50918C73.8912 5.50918 73.7746 5.569 73.6489 5.68864C73.3798 5.93389 73.1016 6.33767 72.8145 6.89996V10.839C72.8145 11.2936 72.8713 11.6376 72.985 11.8709C73.0627 12.0324 73.2003 12.167 73.3977 12.2747C73.5951 12.3823 73.8792 12.4362 74.2501 12.4362V12.7592H70.0419V12.4362C70.4606 12.4362 70.7717 12.3704 70.975 12.2388C71.1246 12.1431 71.2293 11.9905 71.2891 11.7812C71.319 11.6795 71.334 11.3894 71.334 10.9108V7.72546C71.334 6.76836 71.313 6.20009 71.2712 6.02063C71.2353 5.83519 71.1635 5.7006 71.0558 5.61685C70.9541 5.53311 70.8255 5.49123 70.67 5.49123C70.4845 5.49123 70.2752 5.5361 70.0419 5.62583L69.9521 5.30281L72.4376 4.29785H72.8145Z" fill="#181818"/>
<path d="M66.9013 11.5748C66.0579 12.2268 65.5285 12.6037 65.3131 12.7054C64.9901 12.8549 64.6462 12.9297 64.2813 12.9297C63.713 12.9297 63.2434 12.7353 62.8725 12.3465C62.5076 11.9576 62.3252 11.4462 62.3252 10.8121C62.3252 10.4113 62.4149 10.0644 62.5944 9.77126C62.8396 9.36449 63.2643 8.98165 63.8685 8.62274C64.4787 8.26383 65.4896 7.82715 66.9013 7.31271V6.98969C66.9013 6.17018 66.7697 5.60788 66.5065 5.30281C66.2493 4.99773 65.8724 4.84519 65.3759 4.84519C64.9991 4.84519 64.7 4.94688 64.4787 5.15027C64.2514 5.35365 64.1377 5.58694 64.1377 5.85015L64.1556 6.37057C64.1556 6.64573 64.0839 6.85809 63.9403 7.00764C63.8027 7.15718 63.6203 7.23196 63.393 7.23196C63.1716 7.23196 62.9892 7.15419 62.8456 6.99866C62.708 6.84314 62.6392 6.63078 62.6392 6.3616C62.6392 5.84716 62.9024 5.37459 63.4288 4.94389C63.9553 4.5132 64.694 4.29785 65.6451 4.29785C66.3749 4.29785 66.9731 4.42048 67.4397 4.66574C67.7926 4.85117 68.0528 5.14129 68.2203 5.5361C68.328 5.79332 68.3818 6.31972 68.3818 7.11531V9.90585C68.3818 10.6895 68.3968 11.171 68.4267 11.3505C68.4566 11.5239 68.5045 11.6406 68.5703 11.7004C68.642 11.7602 68.7228 11.7901 68.8125 11.7901C68.9082 11.7901 68.992 11.7692 69.0638 11.7273C69.1894 11.6496 69.4317 11.4312 69.7906 11.0723V11.5748C69.1206 12.4721 68.4805 12.9207 67.8704 12.9207C67.5773 12.9207 67.344 12.819 67.1705 12.6156C66.997 12.4123 66.9073 12.0653 66.9013 11.5748ZM66.9013 10.9916V7.86005C65.9981 8.21897 65.4148 8.47319 65.1516 8.62274C64.6791 8.88594 64.3411 9.16111 64.1377 9.44824C63.9343 9.73537 63.8326 10.0494 63.8326 10.3904C63.8326 10.8211 63.9612 11.18 64.2185 11.4671C64.4757 11.7483 64.7718 11.8888 65.1068 11.8888C65.5614 11.8888 66.1596 11.5897 66.9013 10.9916Z" fill="#181818"/>
<path d="M54.1416 11.5748C53.2981 12.2268 52.7687 12.6037 52.5534 12.7054C52.2304 12.8549 51.8864 12.9297 51.5215 12.9297C50.9532 12.9297 50.4836 12.7353 50.1128 12.3465C49.7479 11.9576 49.5654 11.4462 49.5654 10.8121C49.5654 10.4113 49.6552 10.0644 49.8346 9.77126C50.0799 9.36449 50.5046 8.98165 51.1088 8.62274C51.7189 8.26383 52.7298 7.82715 54.1416 7.31271V6.98969C54.1416 6.17018 54.01 5.60788 53.7468 5.30281C53.4895 4.99773 53.1127 4.84519 52.6162 4.84519C52.2393 4.84519 51.9402 4.94688 51.7189 5.15027C51.4916 5.35365 51.3779 5.58694 51.3779 5.85015L51.3959 6.37057C51.3959 6.64573 51.3241 6.85809 51.1805 7.00764C51.043 7.15718 50.8605 7.23196 50.6332 7.23196C50.4119 7.23196 50.2294 7.15419 50.0859 6.99866C49.9483 6.84314 49.8795 6.63078 49.8795 6.3616C49.8795 5.84716 50.1427 5.37459 50.6691 4.94389C51.1955 4.5132 51.9342 4.29785 52.8854 4.29785C53.6152 4.29785 54.2133 4.42048 54.6799 4.66574C55.0329 4.85117 55.2931 5.14129 55.4606 5.5361C55.5682 5.79332 55.6221 6.31972 55.6221 7.11531V9.90585C55.6221 10.6895 55.637 11.171 55.6669 11.3505C55.6968 11.5239 55.7447 11.6406 55.8105 11.7004C55.8823 11.7602 55.963 11.7901 56.0528 11.7901C56.1485 11.7901 56.2322 11.7692 56.304 11.7273C56.4296 11.6496 56.6719 11.4312 57.0308 11.0723V11.5748C56.3608 12.4721 55.7208 12.9207 55.1106 12.9207C54.8175 12.9207 54.5842 12.819 54.4107 12.6156C54.2373 12.4123 54.1475 12.0653 54.1416 11.5748ZM54.1416 10.9916V7.86005C53.2383 8.21897 52.6551 8.47319 52.3919 8.62274C51.9193 8.88594 51.5813 9.16111 51.3779 9.44824C51.1746 9.73537 51.0729 10.0494 51.0729 10.3904C51.0729 10.8211 51.2015 11.18 51.4587 11.4671C51.7159 11.7483 52.012 11.8888 52.347 11.8888C52.8016 11.8888 53.3998 11.5897 54.1416 10.9916Z" fill="#181818"/>
<path d="M47.6363 4.29785V7.09736H47.3402C47.1129 6.21803 46.8198 5.61984 46.4609 5.30281C46.108 4.98577 45.6563 4.82725 45.106 4.82725C44.6873 4.82725 44.3493 4.93791 44.0921 5.15924C43.8349 5.38057 43.7063 5.62583 43.7063 5.89501C43.7063 6.22999 43.802 6.51712 43.9934 6.7564C44.1788 7.00166 44.5557 7.26187 45.124 7.53703L46.434 8.1741C47.6483 8.76631 48.2555 9.54694 48.2555 10.516C48.2555 11.2637 47.9713 11.8679 47.403 12.3285C46.8407 12.7831 46.2097 13.0104 45.5098 13.0104C45.0073 13.0104 44.433 12.9207 43.787 12.7413C43.5896 12.6814 43.4281 12.6515 43.3025 12.6515C43.1649 12.6515 43.0572 12.7293 42.9795 12.8848H42.6834V9.95072H42.9795C43.1469 10.7882 43.467 11.4193 43.9395 11.844C44.4121 12.2687 44.9415 12.481 45.5277 12.481C45.9405 12.481 46.2755 12.3614 46.5327 12.1221C46.7959 11.8769 46.9275 11.5838 46.9275 11.2428C46.9275 10.83 46.7809 10.4831 46.4878 10.202C46.2007 9.92081 45.6234 9.56488 44.7561 9.13419C43.8887 8.7035 43.3204 8.31467 43.0512 7.96773C42.7821 7.62676 42.6475 7.19607 42.6475 6.67564C42.6475 5.99969 42.8778 5.43441 43.3384 4.97978C43.805 4.52516 44.4061 4.29785 45.1419 4.29785C45.4649 4.29785 45.8567 4.36664 46.3173 4.50423C46.6224 4.59395 46.8258 4.63882 46.9275 4.63882C47.0232 4.63882 47.098 4.61788 47.1518 4.57601C47.2056 4.53414 47.2685 4.44142 47.3402 4.29785H47.6363Z" fill="#181818"/>
<path d="M38.8164 11.5748C37.9729 12.2268 37.4435 12.6037 37.2282 12.7054C36.9052 12.8549 36.5612 12.9297 36.1963 12.9297C35.628 12.9297 35.1585 12.7353 34.7876 12.3465C34.4227 11.9576 34.2402 11.4462 34.2402 10.8121C34.2402 10.4113 34.33 10.0644 34.5094 9.77126C34.7547 9.36449 35.1794 8.98165 35.7836 8.62274C36.3937 8.26383 37.4046 7.82715 38.8164 7.31271V6.98969C38.8164 6.17018 38.6848 5.60788 38.4216 5.30281C38.1643 4.99773 37.7875 4.84519 37.291 4.84519C36.9141 4.84519 36.615 4.94688 36.3937 5.15027C36.1664 5.35365 36.0527 5.58694 36.0527 5.85015L36.0707 6.37057C36.0707 6.64573 35.9989 6.85809 35.8553 7.00764C35.7178 7.15718 35.5353 7.23196 35.308 7.23196C35.0867 7.23196 34.9042 7.15419 34.7607 6.99866C34.6231 6.84314 34.5543 6.63078 34.5543 6.3616C34.5543 5.84716 34.8175 5.37459 35.3439 4.94389C35.8703 4.5132 36.6091 4.29785 37.5602 4.29785C38.29 4.29785 38.8881 4.42048 39.3547 4.66574C39.7077 4.85117 39.9679 5.14129 40.1354 5.5361C40.243 5.79332 40.2969 6.31972 40.2969 7.11531V9.90585C40.2969 10.6895 40.3118 11.171 40.3417 11.3505C40.3716 11.5239 40.4195 11.6406 40.4853 11.7004C40.5571 11.7602 40.6378 11.7901 40.7276 11.7901C40.8233 11.7901 40.907 11.7692 40.9788 11.7273C41.1044 11.6496 41.3467 11.4312 41.7056 11.0723V11.5748C41.0356 12.4721 40.3956 12.9207 39.7854 12.9207C39.4923 12.9207 39.259 12.819 39.0855 12.6156C38.9121 12.4123 38.8223 12.0653 38.8164 11.5748ZM38.8164 10.9916V7.86005C37.9131 8.21897 37.3299 8.47319 37.0667 8.62274C36.5941 8.88594 36.2561 9.16111 36.0527 9.44824C35.8494 9.73537 35.7477 10.0494 35.7477 10.3904C35.7477 10.8211 35.8763 11.18 36.1335 11.4671C36.3907 11.7483 36.6868 11.8888 37.0218 11.8888C37.4764 11.8888 38.0746 11.5897 38.8164 10.9916Z" fill="#181818"/>
<path d="M32.3917 0.314209L32.6698 4.45067H32.3917C32.0208 3.21242 31.4914 2.32113 30.8035 1.77678C30.1156 1.23243 29.2901 0.960251 28.327 0.960251C27.5194 0.960251 26.7896 1.16662 26.1376 1.57937C25.4856 1.98614 24.9712 2.63816 24.5943 3.53544C24.2234 4.43272 24.038 5.54834 24.038 6.8823C24.038 7.98296 24.2145 8.93707 24.5674 9.74462C24.9203 10.5522 25.4497 11.1713 26.1556 11.602C26.8674 12.0327 27.678 12.248 28.5872 12.248C29.3768 12.248 30.0737 12.0805 30.6779 11.7456C31.282 11.4046 31.946 10.7316 32.6698 9.72668L32.948 9.90613C32.3378 10.9888 31.626 11.7814 30.8124 12.2839C29.9989 12.7864 29.0328 13.0376 27.9142 13.0376C25.8983 13.0376 24.3371 12.2899 23.2304 10.7944C22.4049 9.68181 21.9922 8.37178 21.9922 6.86435C21.9922 5.65003 22.2644 4.53442 22.8087 3.5175C23.3531 2.50058 24.1008 1.71397 25.0519 1.15765C26.009 0.595357 27.0528 0.314209 28.1834 0.314209C29.0628 0.314209 29.9301 0.529556 30.7855 0.960251C31.0368 1.09185 31.2162 1.15765 31.3239 1.15765C31.4854 1.15765 31.626 1.10082 31.7456 0.987169C31.9011 0.825659 32.0118 0.601339 32.0776 0.314209H32.3917Z" fill="#181818"/>
<path d="M18.394 11.5748C17.5506 12.2268 17.0212 12.6037 16.8058 12.7054C16.4828 12.8549 16.1388 12.9297 15.7739 12.9297C15.2057 12.9297 14.7361 12.7353 14.3652 12.3465C14.0003 11.9576 13.8179 11.4462 13.8179 10.8121C13.8179 10.4113 13.9076 10.0644 14.0871 9.77126C14.3323 9.36449 14.757 8.98165 15.3612 8.62274C15.9713 8.26383 16.9823 7.82715 18.394 7.31271V6.98969C18.394 6.17018 18.2624 5.60788 17.9992 5.30281C17.742 4.99773 17.3651 4.84519 16.8686 4.84519C16.4918 4.84519 16.1927 4.94688 15.9713 5.15027C15.744 5.35365 15.6304 5.58694 15.6304 5.85015L15.6483 6.37057C15.6483 6.64573 15.5765 6.85809 15.433 7.00764C15.2954 7.15718 15.1129 7.23196 14.8856 7.23196C14.6643 7.23196 14.4819 7.15419 14.3383 6.99866C14.2007 6.84314 14.1319 6.63078 14.1319 6.3616C14.1319 5.84716 14.3951 5.37459 14.9215 4.94389C15.4479 4.5132 16.1867 4.29785 17.1378 4.29785C17.8676 4.29785 18.4658 4.42048 18.9324 4.66574C19.2853 4.85117 19.5455 5.14129 19.713 5.5361C19.8207 5.79332 19.8745 6.31972 19.8745 7.11531V9.90585C19.8745 10.6895 19.8895 11.171 19.9194 11.3505C19.9493 11.5239 19.9971 11.6406 20.0629 11.7004C20.1347 11.7602 20.2155 11.7901 20.3052 11.7901C20.4009 11.7901 20.4847 11.7692 20.5564 11.7273C20.6821 11.6496 20.9243 11.4312 21.2832 11.0723V11.5748C20.6133 12.4721 19.9732 12.9207 19.3631 12.9207C19.07 12.9207 18.8367 12.819 18.6632 12.6156C18.4897 12.4123 18.4 12.0653 18.394 11.5748ZM18.394 10.9916V7.86005C17.4907 8.21897 16.9075 8.47319 16.6443 8.62274C16.1717 8.88594 15.8338 9.16111 15.6304 9.44824C15.427 9.73537 15.3253 10.0494 15.3253 10.3904C15.3253 10.8211 15.4539 11.18 15.7111 11.4671C15.9684 11.7483 16.2645 11.8888 16.5994 11.8888C17.0541 11.8888 17.6522 11.5897 18.394 10.9916Z" fill="#181818"/>
<path d="M0 4.54028H3.44556V4.87228C3.12852 4.8962 2.91915 4.95303 2.81746 5.04276C2.72175 5.13249 2.67389 5.2611 2.67389 5.42859C2.67389 5.61403 2.72474 5.83835 2.82643 6.10155L4.5851 10.8302L6.35274 6.98088L5.88616 5.76956C5.74259 5.41064 5.55416 5.1624 5.32087 5.02481C5.18927 4.94107 4.94401 4.89022 4.5851 4.87228V4.54028H8.49724V4.87228C8.06655 4.89022 7.76147 4.96799 7.58202 5.10557C7.46238 5.20128 7.40256 5.35382 7.40256 5.56318C7.40256 5.68282 7.42649 5.80545 7.47434 5.93107L9.34068 10.6508L11.0724 6.10155C11.1921 5.77853 11.2519 5.52131 11.2519 5.32989C11.2519 5.21623 11.1921 5.11454 11.0724 5.02481C10.9588 4.93509 10.7315 4.88424 10.3905 4.87228V4.54028H12.9836V4.87228C12.4632 4.95004 12.0804 5.30297 11.8351 5.93107L9.08945 13.0106H8.72156L6.66679 7.76152L4.27105 13.0106H3.93906L1.30106 6.10155C1.12758 5.66487 0.957099 5.37176 0.789606 5.22222C0.622114 5.06669 0.358912 4.95004 0 4.87228V4.54028Z" fill="#181818"/>
</svg>
