<svg width="20" height="20" viewBox="0 0 20 20" fill="none" xmlns="http://www.w3.org/2000/svg">
<g clip-path="url(#clip0_5051_708)">
<path d="M14.6665 4.66669H15.9998M5.99984 0.666687H13.9998C15.4143 0.666687 16.7709 1.22859 17.7711 2.22878C18.7713 3.22898 19.3332 4.58553 19.3332 6.00002V14C19.3332 15.4145 18.7713 16.7711 17.7711 17.7713C16.7709 18.7715 15.4143 19.3334 13.9998 19.3334H5.99984C4.58535 19.3334 3.2288 18.7715 2.2286 17.7713C1.22841 16.7711 0.666504 15.4145 0.666504 14V6.00002C0.666504 4.58553 1.22841 3.22898 2.2286 2.22878C3.2288 1.22859 4.58535 0.666687 5.99984 0.666687ZM9.99984 14C8.93897 14 7.92156 13.5786 7.17141 12.8284C6.42126 12.0783 5.99984 11.0609 5.99984 10C5.99984 8.93915 6.42126 7.92174 7.17141 7.17159C7.92156 6.42145 8.93897 6.00002 9.99984 6.00002C11.0607 6.00002 12.0781 6.42145 12.8283 7.17159C13.5784 7.92174 13.9998 8.93915 13.9998 10C13.9998 11.0609 13.5784 12.0783 12.8283 12.8284C12.0781 13.5786 11.0607 14 9.99984 14Z" stroke="#17504A"/>
</g>
<defs>
<clipPath id="clip0_5051_708">
<rect width="20" height="20" fill="white"/>
</clipPath>
</defs>
</svg>
