<svg width="218" height="24" viewBox="0 0 218 24" fill="none" xmlns="http://www.w3.org/2000/svg">
<path d="M214.094 3.98438V8.6875H217.438V9.78125H214.094V19.0625C214.094 19.9896 214.224 20.6146 214.484 20.9375C214.755 21.2604 215.099 21.4219 215.516 21.4219C215.859 21.4219 216.193 21.3177 216.516 21.1094C216.839 20.8906 217.089 20.5729 217.266 20.1562H217.875C217.51 21.1771 216.995 21.9479 216.328 22.4688C215.661 22.9792 214.974 23.2344 214.266 23.2344C213.786 23.2344 213.318 23.1042 212.859 22.8438C212.401 22.5729 212.062 22.1927 211.844 21.7031C211.625 21.2031 211.516 20.4375 211.516 19.4062V9.78125H209.25V9.26562C209.823 9.03646 210.406 8.65104 211 8.10938C211.604 7.55729 212.141 6.90625 212.609 6.15625C212.849 5.76042 213.182 5.03646 213.609 3.98438H214.094Z" fill="#17504A"/>
<path d="M207.875 17.5625C207.49 19.4479 206.734 20.901 205.609 21.9219C204.484 22.9323 203.24 23.4375 201.875 23.4375C200.25 23.4375 198.833 22.7552 197.625 21.3906C196.417 20.026 195.812 18.1823 195.812 15.8594C195.812 13.6094 196.479 11.7812 197.812 10.375C199.156 8.96875 200.766 8.26562 202.641 8.26562C204.047 8.26562 205.203 8.64062 206.109 9.39062C207.016 10.1302 207.469 10.901 207.469 11.7031C207.469 12.099 207.339 12.4219 207.078 12.6719C206.828 12.9115 206.474 13.0312 206.016 13.0312C205.401 13.0312 204.938 12.8333 204.625 12.4375C204.448 12.2188 204.328 11.8021 204.266 11.1875C204.214 10.5729 204.005 10.1042 203.641 9.78125C203.276 9.46875 202.771 9.3125 202.125 9.3125C201.083 9.3125 200.245 9.69792 199.609 10.4688C198.766 11.4896 198.344 12.8385 198.344 14.5156C198.344 16.224 198.76 17.7344 199.594 19.0469C200.438 20.349 201.573 21 203 21C204.021 21 204.938 20.651 205.75 19.9531C206.323 19.474 206.88 18.6042 207.422 17.3438L207.875 17.5625Z" fill="#17504A"/>
<path d="M183.906 14.0781C183.896 16.2031 184.411 17.8698 185.453 19.0781C186.495 20.2865 187.719 20.8906 189.125 20.8906C190.062 20.8906 190.875 20.6354 191.562 20.125C192.26 19.6042 192.844 18.7188 193.312 17.4688L193.797 17.7812C193.578 19.2083 192.943 20.5104 191.891 21.6875C190.839 22.8542 189.521 23.4375 187.938 23.4375C186.219 23.4375 184.745 22.7708 183.516 21.4375C182.297 20.0938 181.688 18.2917 181.688 16.0312C181.688 13.5833 182.312 11.6771 183.562 10.3125C184.823 8.9375 186.401 8.25 188.297 8.25C189.901 8.25 191.219 8.78125 192.25 9.84375C193.281 10.8958 193.797 12.3073 193.797 14.0781H183.906ZM183.906 13.1719H190.531C190.479 12.2552 190.37 11.6094 190.203 11.2344C189.943 10.651 189.552 10.1927 189.031 9.85938C188.521 9.52604 187.984 9.35938 187.422 9.35938C186.557 9.35938 185.781 9.69792 185.094 10.375C184.417 11.0417 184.021 11.974 183.906 13.1719Z" fill="#17504A"/>
<path d="M176.75 3.98438V8.6875H180.094V9.78125H176.75V19.0625C176.75 19.9896 176.88 20.6146 177.141 20.9375C177.411 21.2604 177.755 21.4219 178.172 21.4219C178.516 21.4219 178.849 21.3177 179.172 21.1094C179.495 20.8906 179.745 20.5729 179.922 20.1562H180.531C180.167 21.1771 179.651 21.9479 178.984 22.4688C178.318 22.9792 177.63 23.2344 176.922 23.2344C176.443 23.2344 175.974 23.1042 175.516 22.8438C175.057 22.5729 174.719 22.1927 174.5 21.7031C174.281 21.2031 174.172 20.4375 174.172 19.4062V9.78125H171.906V9.26562C172.479 9.03646 173.062 8.65104 173.656 8.10938C174.26 7.55729 174.797 6.90625 175.266 6.15625C175.505 5.76042 175.839 5.03646 176.266 3.98438H176.75Z" fill="#17504A"/>
<path d="M167.328 0.78125C167.766 0.78125 168.135 0.9375 168.438 1.25C168.75 1.55208 168.906 1.92188 168.906 2.35938C168.906 2.79688 168.75 3.17188 168.438 3.48438C168.135 3.79688 167.766 3.95312 167.328 3.95312C166.891 3.95312 166.516 3.79688 166.203 3.48438C165.891 3.17188 165.734 2.79688 165.734 2.35938C165.734 1.92188 165.885 1.55208 166.188 1.25C166.5 0.9375 166.88 0.78125 167.328 0.78125ZM168.625 8.26562V19.7656C168.625 20.6615 168.688 21.2604 168.812 21.5625C168.948 21.8542 169.141 22.0729 169.391 22.2188C169.651 22.3646 170.12 22.4375 170.797 22.4375V23H163.844V22.4375C164.542 22.4375 165.01 22.3698 165.25 22.2344C165.49 22.099 165.677 21.875 165.812 21.5625C165.958 21.25 166.031 20.651 166.031 19.7656V14.25C166.031 12.6979 165.984 11.6927 165.891 11.2344C165.818 10.901 165.703 10.6719 165.547 10.5469C165.391 10.4115 165.177 10.3438 164.906 10.3438C164.615 10.3438 164.26 10.4219 163.844 10.5781L163.625 10.0156L167.938 8.26562H168.625Z" fill="#17504A"/>
<path d="M151.891 0.78125V11.25C153.047 9.97917 153.964 9.16667 154.641 8.8125C155.318 8.44792 155.995 8.26562 156.672 8.26562C157.484 8.26562 158.182 8.48958 158.766 8.9375C159.349 9.38542 159.781 10.0885 160.062 11.0469C160.26 11.7135 160.359 12.9323 160.359 14.7031V19.7656C160.359 20.6719 160.432 21.2917 160.578 21.625C160.682 21.875 160.859 22.0729 161.109 22.2188C161.359 22.3646 161.818 22.4375 162.484 22.4375V23H155.453V22.4375H155.781C156.448 22.4375 156.911 22.3385 157.172 22.1406C157.432 21.9323 157.615 21.6302 157.719 21.2344C157.75 21.0677 157.766 20.5781 157.766 19.7656V14.7031C157.766 13.1406 157.682 12.1146 157.516 11.625C157.359 11.1354 157.104 10.7708 156.75 10.5312C156.396 10.2812 155.969 10.1562 155.469 10.1562C154.958 10.1562 154.427 10.2917 153.875 10.5625C153.323 10.8333 152.661 11.3802 151.891 12.2031V19.7656C151.891 20.7448 151.943 21.3542 152.047 21.5938C152.161 21.8333 152.365 22.0365 152.656 22.2031C152.958 22.3594 153.474 22.4375 154.203 22.4375V23H147.109V22.4375C147.745 22.4375 148.245 22.3385 148.609 22.1406C148.818 22.0365 148.984 21.8385 149.109 21.5469C149.234 21.2552 149.297 20.6615 149.297 19.7656V6.8125C149.297 5.17708 149.255 4.17188 149.172 3.79688C149.099 3.42188 148.979 3.16667 148.812 3.03125C148.656 2.89583 148.443 2.82812 148.172 2.82812C147.953 2.82812 147.599 2.91146 147.109 3.07812L146.891 2.53125L151.172 0.78125H151.891Z" fill="#17504A"/>
<path d="M145.625 17.5625C145.24 19.4479 144.484 20.901 143.359 21.9219C142.234 22.9323 140.99 23.4375 139.625 23.4375C138 23.4375 136.583 22.7552 135.375 21.3906C134.167 20.026 133.562 18.1823 133.562 15.8594C133.562 13.6094 134.229 11.7812 135.562 10.375C136.906 8.96875 138.516 8.26562 140.391 8.26562C141.797 8.26562 142.953 8.64062 143.859 9.39062C144.766 10.1302 145.219 10.901 145.219 11.7031C145.219 12.099 145.089 12.4219 144.828 12.6719C144.578 12.9115 144.224 13.0312 143.766 13.0312C143.151 13.0312 142.688 12.8333 142.375 12.4375C142.198 12.2188 142.078 11.8021 142.016 11.1875C141.964 10.5729 141.755 10.1042 141.391 9.78125C141.026 9.46875 140.521 9.3125 139.875 9.3125C138.833 9.3125 137.995 9.69792 137.359 10.4688C136.516 11.4896 136.094 12.8385 136.094 14.5156C136.094 16.224 136.51 17.7344 137.344 19.0469C138.188 20.349 139.323 21 140.75 21C141.771 21 142.688 20.651 143.5 19.9531C144.073 19.474 144.63 18.6042 145.172 17.3438L145.625 17.5625Z" fill="#17504A"/>
<path d="M127 8.26562V11.4844C128.198 9.33854 129.427 8.26562 130.688 8.26562C131.26 8.26562 131.734 8.44271 132.109 8.79688C132.484 9.14062 132.672 9.54167 132.672 10C132.672 10.4062 132.536 10.75 132.266 11.0312C131.995 11.3125 131.672 11.4531 131.297 11.4531C130.932 11.4531 130.521 11.276 130.062 10.9219C129.615 10.5573 129.281 10.375 129.062 10.375C128.875 10.375 128.672 10.4792 128.453 10.6875C127.984 11.1146 127.5 11.8177 127 12.7969V19.6562C127 20.4479 127.099 21.0469 127.297 21.4531C127.432 21.7344 127.672 21.9688 128.016 22.1562C128.359 22.3438 128.854 22.4375 129.5 22.4375V23H122.172V22.4375C122.901 22.4375 123.443 22.3229 123.797 22.0938C124.057 21.9271 124.24 21.6615 124.344 21.2969C124.396 21.1198 124.422 20.6146 124.422 19.7812V14.2344C124.422 12.5677 124.385 11.5781 124.312 11.2656C124.25 10.9427 124.125 10.7083 123.938 10.5625C123.76 10.4167 123.536 10.3438 123.266 10.3438C122.943 10.3438 122.578 10.4219 122.172 10.5781L122.016 10.0156L126.344 8.26562H127Z" fill="#17504A"/>
<path d="M116.703 20.9375C115.234 22.0729 114.312 22.7292 113.938 22.9062C113.375 23.1667 112.776 23.2969 112.141 23.2969C111.151 23.2969 110.333 22.9583 109.688 22.2812C109.052 21.6042 108.734 20.7135 108.734 19.6094C108.734 18.9115 108.891 18.3073 109.203 17.7969C109.63 17.0885 110.37 16.4219 111.422 15.7969C112.484 15.1719 114.245 14.4115 116.703 13.5156V12.9531C116.703 11.526 116.474 10.5469 116.016 10.0156C115.568 9.48438 114.911 9.21875 114.047 9.21875C113.391 9.21875 112.87 9.39583 112.484 9.75C112.089 10.1042 111.891 10.5104 111.891 10.9688L111.922 11.875C111.922 12.3542 111.797 12.724 111.547 12.9844C111.307 13.2448 110.99 13.375 110.594 13.375C110.208 13.375 109.891 13.2396 109.641 12.9688C109.401 12.6979 109.281 12.3281 109.281 11.8594C109.281 10.9635 109.74 10.1406 110.656 9.39062C111.573 8.64062 112.859 8.26562 114.516 8.26562C115.786 8.26562 116.828 8.47917 117.641 8.90625C118.255 9.22917 118.708 9.73438 119 10.4219C119.188 10.8698 119.281 11.7865 119.281 13.1719V18.0312C119.281 19.3958 119.307 20.2344 119.359 20.5469C119.411 20.849 119.495 21.0521 119.609 21.1562C119.734 21.2604 119.875 21.3125 120.031 21.3125C120.198 21.3125 120.344 21.276 120.469 21.2031C120.688 21.0677 121.109 20.6875 121.734 20.0625V20.9375C120.568 22.5 119.453 23.2812 118.391 23.2812C117.88 23.2812 117.474 23.1042 117.172 22.75C116.87 22.3958 116.714 21.7917 116.703 20.9375ZM116.703 19.9219V14.4688C115.13 15.0938 114.115 15.5365 113.656 15.7969C112.833 16.2552 112.245 16.7344 111.891 17.2344C111.536 17.7344 111.359 18.2812 111.359 18.875C111.359 19.625 111.583 20.25 112.031 20.75C112.479 21.2396 112.995 21.4844 113.578 21.4844C114.37 21.4844 115.411 20.9635 116.703 19.9219Z" fill="#17504A"/>
<path d="M94.4844 20.9375C93.0156 22.0729 92.0938 22.7292 91.7188 22.9062C91.1562 23.1667 90.5573 23.2969 89.9219 23.2969C88.9323 23.2969 88.1146 22.9583 87.4688 22.2812C86.8333 21.6042 86.5156 20.7135 86.5156 19.6094C86.5156 18.9115 86.6719 18.3073 86.9844 17.7969C87.4115 17.0885 88.151 16.4219 89.2031 15.7969C90.2656 15.1719 92.026 14.4115 94.4844 13.5156V12.9531C94.4844 11.526 94.2552 10.5469 93.7969 10.0156C93.349 9.48438 92.6927 9.21875 91.8281 9.21875C91.1719 9.21875 90.651 9.39583 90.2656 9.75C89.8698 10.1042 89.6719 10.5104 89.6719 10.9688L89.7031 11.875C89.7031 12.3542 89.5781 12.724 89.3281 12.9844C89.0885 13.2448 88.7708 13.375 88.375 13.375C87.9896 13.375 87.6719 13.2396 87.4219 12.9688C87.1823 12.6979 87.0625 12.3281 87.0625 11.8594C87.0625 10.9635 87.5208 10.1406 88.4375 9.39062C89.3542 8.64062 90.6406 8.26562 92.2969 8.26562C93.5677 8.26562 94.6094 8.47917 95.4219 8.90625C96.0365 9.22917 96.4896 9.73438 96.7812 10.4219C96.9688 10.8698 97.0625 11.7865 97.0625 13.1719V18.0312C97.0625 19.3958 97.0885 20.2344 97.1406 20.5469C97.1927 20.849 97.276 21.0521 97.3906 21.1562C97.5156 21.2604 97.6562 21.3125 97.8125 21.3125C97.9792 21.3125 98.125 21.276 98.25 21.2031C98.4688 21.0677 98.8906 20.6875 99.5156 20.0625V20.9375C98.349 22.5 97.2344 23.2812 96.1719 23.2812C95.6615 23.2812 95.2552 23.1042 94.9531 22.75C94.651 22.3958 94.4948 21.7917 94.4844 20.9375ZM94.4844 19.9219V14.4688C92.9115 15.0938 91.8958 15.5365 91.4375 15.7969C90.6146 16.2552 90.026 16.7344 89.6719 17.2344C89.3177 17.7344 89.1406 18.2812 89.1406 18.875C89.1406 19.625 89.3646 20.25 89.8125 20.75C90.2604 21.2396 90.776 21.4844 91.3594 21.4844C92.151 21.4844 93.1927 20.9635 94.4844 19.9219Z" fill="#17504A"/>
<path d="M83.1562 8.26562V13.1406H82.6406C82.2448 11.6094 81.7344 10.5677 81.1094 10.0156C80.4948 9.46354 79.7083 9.1875 78.75 9.1875C78.0208 9.1875 77.4323 9.38021 76.9844 9.76562C76.5365 10.151 76.3125 10.5781 76.3125 11.0469C76.3125 11.6302 76.4792 12.1302 76.8125 12.5469C77.1354 12.974 77.7917 13.4271 78.7812 13.9062L81.0625 15.0156C83.1771 16.0469 84.2344 17.4062 84.2344 19.0938C84.2344 20.3958 83.7396 21.4479 82.75 22.25C81.7708 23.0417 80.6719 23.4375 79.4531 23.4375C78.5781 23.4375 77.5781 23.2812 76.4531 22.9688C76.1094 22.8646 75.8281 22.8125 75.6094 22.8125C75.3698 22.8125 75.1823 22.9479 75.0469 23.2188H74.5312V18.1094H75.0469C75.3385 19.5677 75.8958 20.6667 76.7188 21.4062C77.5417 22.1458 78.4635 22.5156 79.4844 22.5156C80.2031 22.5156 80.7865 22.3073 81.2344 21.8906C81.6927 21.4635 81.9219 20.9531 81.9219 20.3594C81.9219 19.6406 81.6667 19.0365 81.1562 18.5469C80.6562 18.0573 79.651 17.4375 78.1406 16.6875C76.6302 15.9375 75.6406 15.2604 75.1719 14.6562C74.7031 14.0625 74.4688 13.3125 74.4688 12.4062C74.4688 11.2292 74.8698 10.2448 75.6719 9.45312C76.4844 8.66146 77.5312 8.26562 78.8125 8.26562C79.375 8.26562 80.0573 8.38542 80.8594 8.625C81.3906 8.78125 81.7448 8.85938 81.9219 8.85938C82.0885 8.85938 82.2188 8.82292 82.3125 8.75C82.4062 8.67708 82.5156 8.51562 82.6406 8.26562H83.1562Z" fill="#17504A"/>
<path d="M67.7969 20.9375C66.3281 22.0729 65.4062 22.7292 65.0312 22.9062C64.4688 23.1667 63.8698 23.2969 63.2344 23.2969C62.2448 23.2969 61.4271 22.9583 60.7812 22.2812C60.1458 21.6042 59.8281 20.7135 59.8281 19.6094C59.8281 18.9115 59.9844 18.3073 60.2969 17.7969C60.724 17.0885 61.4635 16.4219 62.5156 15.7969C63.5781 15.1719 65.3385 14.4115 67.7969 13.5156V12.9531C67.7969 11.526 67.5677 10.5469 67.1094 10.0156C66.6615 9.48438 66.0052 9.21875 65.1406 9.21875C64.4844 9.21875 63.9635 9.39583 63.5781 9.75C63.1823 10.1042 62.9844 10.5104 62.9844 10.9688L63.0156 11.875C63.0156 12.3542 62.8906 12.724 62.6406 12.9844C62.401 13.2448 62.0833 13.375 61.6875 13.375C61.3021 13.375 60.9844 13.2396 60.7344 12.9688C60.4948 12.6979 60.375 12.3281 60.375 11.8594C60.375 10.9635 60.8333 10.1406 61.75 9.39062C62.6667 8.64062 63.9531 8.26562 65.6094 8.26562C66.8802 8.26562 67.9219 8.47917 68.7344 8.90625C69.349 9.22917 69.8021 9.73438 70.0938 10.4219C70.2812 10.8698 70.375 11.7865 70.375 13.1719V18.0312C70.375 19.3958 70.401 20.2344 70.4531 20.5469C70.5052 20.849 70.5885 21.0521 70.7031 21.1562C70.8281 21.2604 70.9688 21.3125 71.125 21.3125C71.2917 21.3125 71.4375 21.276 71.5625 21.2031C71.7812 21.0677 72.2031 20.6875 72.8281 20.0625V20.9375C71.6615 22.5 70.5469 23.2812 69.4844 23.2812C68.974 23.2812 68.5677 23.1042 68.2656 22.75C67.9635 22.3958 67.8073 21.7917 67.7969 20.9375ZM67.7969 19.9219V14.4688C66.224 15.0938 65.2083 15.5365 64.75 15.7969C63.9271 16.2552 63.3385 16.7344 62.9844 17.2344C62.6302 17.7344 62.4531 18.2812 62.4531 18.875C62.4531 19.625 62.6771 20.25 63.125 20.75C63.5729 21.2396 64.0885 21.4844 64.6719 21.4844C65.4635 21.4844 66.5052 20.9635 67.7969 19.9219Z" fill="#17504A"/>
<path d="M56.6094 1.32812L57.0938 8.53125H56.6094C55.9635 6.375 55.0417 4.82292 53.8438 3.875C52.6458 2.92708 51.2083 2.45312 49.5312 2.45312C48.125 2.45312 46.8542 2.8125 45.7188 3.53125C44.5833 4.23958 43.6875 5.375 43.0312 6.9375C42.3854 8.5 42.0625 10.4427 42.0625 12.7656C42.0625 14.6823 42.3698 16.3438 42.9844 17.75C43.599 19.1562 44.5208 20.2344 45.75 20.9844C46.9896 21.7344 48.401 22.1094 49.9844 22.1094C51.3594 22.1094 52.5729 21.8177 53.625 21.2344C54.6771 20.6406 55.8333 19.4688 57.0938 17.7188L57.5781 18.0312C56.5156 19.9167 55.276 21.2969 53.8594 22.1719C52.4427 23.0469 50.7604 23.4844 48.8125 23.4844C45.3021 23.4844 42.5833 22.1823 40.6562 19.5781C39.2188 17.6406 38.5 15.3594 38.5 12.7344C38.5 10.6198 38.974 8.67708 39.9219 6.90625C40.8698 5.13542 42.1719 3.76562 43.8281 2.79688C45.4948 1.81771 47.3125 1.32812 49.2812 1.32812C50.8125 1.32812 52.3229 1.70312 53.8125 2.45312C54.25 2.68229 54.5625 2.79688 54.75 2.79688C55.0312 2.79688 55.276 2.69792 55.4844 2.5C55.7552 2.21875 55.9479 1.82812 56.0625 1.32812H56.6094Z" fill="#17504A"/>
<path d="M32.2344 20.9375C30.7656 22.0729 29.8438 22.7292 29.4688 22.9062C28.9062 23.1667 28.3073 23.2969 27.6719 23.2969C26.6823 23.2969 25.8646 22.9583 25.2188 22.2812C24.5833 21.6042 24.2656 20.7135 24.2656 19.6094C24.2656 18.9115 24.4219 18.3073 24.7344 17.7969C25.1615 17.0885 25.901 16.4219 26.9531 15.7969C28.0156 15.1719 29.776 14.4115 32.2344 13.5156V12.9531C32.2344 11.526 32.0052 10.5469 31.5469 10.0156C31.099 9.48438 30.4427 9.21875 29.5781 9.21875C28.9219 9.21875 28.401 9.39583 28.0156 9.75C27.6198 10.1042 27.4219 10.5104 27.4219 10.9688L27.4531 11.875C27.4531 12.3542 27.3281 12.724 27.0781 12.9844C26.8385 13.2448 26.5208 13.375 26.125 13.375C25.7396 13.375 25.4219 13.2396 25.1719 12.9688C24.9323 12.6979 24.8125 12.3281 24.8125 11.8594C24.8125 10.9635 25.2708 10.1406 26.1875 9.39062C27.1042 8.64062 28.3906 8.26562 30.0469 8.26562C31.3177 8.26562 32.3594 8.47917 33.1719 8.90625C33.7865 9.22917 34.2396 9.73438 34.5312 10.4219C34.7188 10.8698 34.8125 11.7865 34.8125 13.1719V18.0312C34.8125 19.3958 34.8385 20.2344 34.8906 20.5469C34.9427 20.849 35.026 21.0521 35.1406 21.1562C35.2656 21.2604 35.4062 21.3125 35.5625 21.3125C35.7292 21.3125 35.875 21.276 36 21.2031C36.2188 21.0677 36.6406 20.6875 37.2656 20.0625V20.9375C36.099 22.5 34.9844 23.2812 33.9219 23.2812C33.4115 23.2812 33.0052 23.1042 32.7031 22.75C32.401 22.3958 32.2448 21.7917 32.2344 20.9375ZM32.2344 19.9219V14.4688C30.6615 15.0938 29.6458 15.5365 29.1875 15.7969C28.3646 16.2552 27.776 16.7344 27.4219 17.2344C27.0677 17.7344 26.8906 18.2812 26.8906 18.875C26.8906 19.625 27.1146 20.25 27.5625 20.75C28.0104 21.2396 28.526 21.4844 29.1094 21.4844C29.901 21.4844 30.9427 20.9635 32.2344 19.9219Z" fill="#17504A"/>
<path d="M0.203125 8.6875H6.20312V9.26562C5.65104 9.30729 5.28646 9.40625 5.10938 9.5625C4.94271 9.71875 4.85938 9.94271 4.85938 10.2344C4.85938 10.5573 4.94792 10.9479 5.125 11.4062L8.1875 19.6406L11.2656 12.9375L10.4531 10.8281C10.2031 10.2031 9.875 9.77083 9.46875 9.53125C9.23958 9.38542 8.8125 9.29688 8.1875 9.26562V8.6875H15V9.26562C14.25 9.29688 13.7188 9.43229 13.4062 9.67188C13.1979 9.83854 13.0938 10.1042 13.0938 10.4688C13.0938 10.6771 13.1354 10.8906 13.2188 11.1094L16.4688 19.3281L19.4844 11.4062C19.6927 10.8438 19.7969 10.3958 19.7969 10.0625C19.7969 9.86458 19.6927 9.6875 19.4844 9.53125C19.2865 9.375 18.8906 9.28646 18.2969 9.26562V8.6875H22.8125V9.26562C21.9062 9.40104 21.2396 10.0156 20.8125 11.1094L16.0312 23.4375H15.3906L11.8125 14.2969L7.64062 23.4375H7.0625L2.46875 11.4062C2.16667 10.6458 1.86979 10.1354 1.57812 9.875C1.28646 9.60417 0.828125 9.40104 0.203125 9.26562V8.6875Z" fill="#17504A"/>
</svg>
