<svg width="227" height="32" viewBox="0 0 227 32" fill="none" xmlns="http://www.w3.org/2000/svg">
<g filter="url(#filter0_d_125_734)">
<path d="M4.20312 8.25H10.2031V8.82812C9.65104 8.86979 9.28646 8.96875 9.10938 9.125C8.94271 9.28125 8.85938 9.50521 8.85938 9.79688C8.85938 10.1198 8.94792 10.5104 9.125 10.9688L12.1875 19.2031L15.2656 12.5L14.4531 10.3906C14.2031 9.76562 13.875 9.33333 13.4688 9.09375C13.2396 8.94792 12.8125 8.85938 12.1875 8.82812V8.25H19V8.82812C18.25 8.85938 17.7188 8.99479 17.4062 9.23438C17.1979 9.40104 17.0938 9.66667 17.0938 10.0312C17.0938 10.2396 17.1354 10.4531 17.2188 10.6719L20.4688 18.8906L23.4844 10.9688C23.6927 10.4062 23.7969 9.95833 23.7969 9.625C23.7969 9.42708 23.6927 9.25 23.4844 9.09375C23.2865 8.9375 22.8906 8.84896 22.2969 8.82812V8.25H26.8125V8.82812C25.9062 8.96354 25.2396 9.57812 24.8125 10.6719L20.0312 23H19.3906L15.8125 13.8594L11.6406 23H11.0625L6.46875 10.9688C6.16667 10.2083 5.86979 9.69792 5.57812 9.4375C5.28646 9.16667 4.82812 8.96354 4.20312 8.82812V8.25Z" fill="#FDFDFD"/>
<path d="M36.7812 20.6406C35.3125 21.776 34.3906 22.4323 34.0156 22.6094C33.4531 22.8698 32.8542 23 32.2188 23C31.2292 23 30.4115 22.6615 29.7656 21.9844C29.1302 21.3073 28.8125 20.4167 28.8125 19.3125C28.8125 18.6146 28.9688 18.0104 29.2812 17.5C29.7083 16.7917 30.4479 16.125 31.5 15.5C32.5625 14.875 34.3229 14.1146 36.7812 13.2188V12.6562C36.7812 11.2292 36.5521 10.25 36.0938 9.71875C35.6458 9.1875 34.9896 8.92188 34.125 8.92188C33.4688 8.92188 32.9479 9.09896 32.5625 9.45312C32.1667 9.80729 31.9688 10.2135 31.9688 10.6719L32 11.5781C32 12.0573 31.875 12.4271 31.625 12.6875C31.3854 12.9479 31.0677 13.0781 30.6719 13.0781C30.2865 13.0781 29.9688 12.9427 29.7188 12.6719C29.4792 12.401 29.3594 12.0312 29.3594 11.5625C29.3594 10.6667 29.8177 9.84375 30.7344 9.09375C31.651 8.34375 32.9375 7.96875 34.5938 7.96875C35.8646 7.96875 36.9062 8.18229 37.7188 8.60938C38.3333 8.93229 38.7865 9.4375 39.0781 10.125C39.2656 10.5729 39.3594 11.4896 39.3594 12.875V17.7344C39.3594 19.099 39.3854 19.9375 39.4375 20.25C39.4896 20.5521 39.5729 20.7552 39.6875 20.8594C39.8125 20.9635 39.9531 21.0156 40.1094 21.0156C40.276 21.0156 40.4219 20.9792 40.5469 20.9062C40.7656 20.7708 41.1875 20.3906 41.8125 19.7656V20.6406C40.6458 22.2031 39.5312 22.9844 38.4688 22.9844C37.9583 22.9844 37.5521 22.8073 37.25 22.4531C36.9479 22.099 36.7917 21.4948 36.7812 20.6406ZM36.7812 19.625V14.1719C35.2083 14.7969 34.1927 15.2396 33.7344 15.5C32.9115 15.9583 32.3229 16.4375 31.9688 16.9375C31.6146 17.4375 31.4375 17.9844 31.4375 18.5781C31.4375 19.3281 31.6615 19.9531 32.1094 20.4531C32.5573 20.9427 33.0729 21.1875 33.6562 21.1875C34.4479 21.1875 35.4896 20.6667 36.7812 19.625Z" fill="#FDFDFD"/>
<path d="M61.9219 0.84375L62.4062 8.04688H61.9219C61.276 5.89062 60.3542 4.33854 59.1562 3.39062C57.9583 2.44271 56.5208 1.96875 54.8438 1.96875C53.4375 1.96875 52.1667 2.32812 51.0312 3.04688C49.8958 3.75521 49 4.89062 48.3438 6.45312C47.6979 8.01562 47.375 9.95833 47.375 12.2812C47.375 14.1979 47.6823 15.8594 48.2969 17.2656C48.9115 18.6719 49.8333 19.75 51.0625 20.5C52.3021 21.25 53.7135 21.625 55.2969 21.625C56.6719 21.625 57.8854 21.3333 58.9375 20.75C59.9896 20.1562 61.1458 18.9844 62.4062 17.2344L62.8906 17.5469C61.8281 19.4323 60.5885 20.8125 59.1719 21.6875C57.7552 22.5625 56.0729 23 54.125 23C50.6146 23 47.8958 21.6979 45.9688 19.0938C44.5312 17.1562 43.8125 14.875 43.8125 12.25C43.8125 10.1354 44.2865 8.19271 45.2344 6.42188C46.1823 4.65104 47.4844 3.28125 49.1406 2.3125C50.8073 1.33333 52.625 0.84375 54.5938 0.84375C56.125 0.84375 57.6354 1.21875 59.125 1.96875C59.5625 2.19792 59.875 2.3125 60.0625 2.3125C60.3438 2.3125 60.5885 2.21354 60.7969 2.01562C61.0677 1.73438 61.2604 1.34375 61.375 0.84375H61.9219Z" fill="#FDFDFD"/>
<path d="M72.8594 20.6406C71.3906 21.776 70.4688 22.4323 70.0938 22.6094C69.5312 22.8698 68.9323 23 68.2969 23C67.3073 23 66.4896 22.6615 65.8438 21.9844C65.2083 21.3073 64.8906 20.4167 64.8906 19.3125C64.8906 18.6146 65.0469 18.0104 65.3594 17.5C65.7865 16.7917 66.526 16.125 67.5781 15.5C68.6406 14.875 70.401 14.1146 72.8594 13.2188V12.6562C72.8594 11.2292 72.6302 10.25 72.1719 9.71875C71.724 9.1875 71.0677 8.92188 70.2031 8.92188C69.5469 8.92188 69.026 9.09896 68.6406 9.45312C68.2448 9.80729 68.0469 10.2135 68.0469 10.6719L68.0781 11.5781C68.0781 12.0573 67.9531 12.4271 67.7031 12.6875C67.4635 12.9479 67.1458 13.0781 66.75 13.0781C66.3646 13.0781 66.0469 12.9427 65.7969 12.6719C65.5573 12.401 65.4375 12.0312 65.4375 11.5625C65.4375 10.6667 65.8958 9.84375 66.8125 9.09375C67.7292 8.34375 69.0156 7.96875 70.6719 7.96875C71.9427 7.96875 72.9844 8.18229 73.7969 8.60938C74.4115 8.93229 74.8646 9.4375 75.1562 10.125C75.3438 10.5729 75.4375 11.4896 75.4375 12.875V17.7344C75.4375 19.099 75.4635 19.9375 75.5156 20.25C75.5677 20.5521 75.651 20.7552 75.7656 20.8594C75.8906 20.9635 76.0312 21.0156 76.1875 21.0156C76.3542 21.0156 76.5 20.9792 76.625 20.9062C76.8438 20.7708 77.2656 20.3906 77.8906 19.7656V20.6406C76.724 22.2031 75.6094 22.9844 74.5469 22.9844C74.0365 22.9844 73.6302 22.8073 73.3281 22.4531C73.026 22.099 72.8698 21.4948 72.8594 20.6406ZM72.8594 19.625V14.1719C71.2865 14.7969 70.2708 15.2396 69.8125 15.5C68.9896 15.9583 68.401 16.4375 68.0469 16.9375C67.6927 17.4375 67.5156 17.9844 67.5156 18.5781C67.5156 19.3281 67.7396 19.9531 68.1875 20.4531C68.6354 20.9427 69.151 21.1875 69.7344 21.1875C70.526 21.1875 71.5677 20.6667 72.8594 19.625Z" fill="#FDFDFD"/>
<path d="M88.5781 7.82812V12.7031H88.0625C87.6667 11.1719 87.1562 10.1302 86.5312 9.57812C85.9167 9.02604 85.1302 8.75 84.1719 8.75C83.4427 8.75 82.8542 8.94271 82.4062 9.32812C81.9583 9.71354 81.7344 10.1406 81.7344 10.6094C81.7344 11.1927 81.901 11.6927 82.2344 12.1094C82.5573 12.5365 83.2135 12.9896 84.2031 13.4688L86.4844 14.5781C88.599 15.6094 89.6562 16.9688 89.6562 18.6562C89.6562 19.9583 89.1615 21.0104 88.1719 21.8125C87.1927 22.6042 86.0938 23 84.875 23C84 23 83 22.8438 81.875 22.5312C81.5312 22.4271 81.25 22.375 81.0312 22.375C80.7917 22.375 80.6042 22.5104 80.4688 22.7812H79.9531V17.6719H80.4688C80.7604 19.1302 81.3177 20.2292 82.1406 20.9688C82.9635 21.7083 83.8854 22.0781 84.9062 22.0781C85.625 22.0781 86.2083 21.8698 86.6562 21.4531C87.1146 21.026 87.3438 20.5156 87.3438 19.9219C87.3438 19.2031 87.0885 18.599 86.5781 18.1094C86.0781 17.6198 85.0729 17 83.5625 16.25C82.0521 15.5 81.0625 14.8229 80.5938 14.2188C80.125 13.625 79.8906 12.875 79.8906 11.9688C79.8906 10.7917 80.2917 9.80729 81.0938 9.01562C81.9062 8.22396 82.9531 7.82812 84.2344 7.82812C84.7969 7.82812 85.4792 7.94792 86.2812 8.1875C86.8125 8.34375 87.1667 8.42188 87.3438 8.42188C87.5104 8.42188 87.6406 8.38542 87.7344 8.3125C87.8281 8.23958 87.9375 8.07812 88.0625 7.82812H88.5781Z" fill="#FDFDFD"/>
<path d="M99.625 20.6406C98.1562 21.776 97.2344 22.4323 96.8594 22.6094C96.2969 22.8698 95.6979 23 95.0625 23C94.0729 23 93.2552 22.6615 92.6094 21.9844C91.974 21.3073 91.6562 20.4167 91.6562 19.3125C91.6562 18.6146 91.8125 18.0104 92.125 17.5C92.5521 16.7917 93.2917 16.125 94.3438 15.5C95.4062 14.875 97.1667 14.1146 99.625 13.2188V12.6562C99.625 11.2292 99.3958 10.25 98.9375 9.71875C98.4896 9.1875 97.8333 8.92188 96.9688 8.92188C96.3125 8.92188 95.7917 9.09896 95.4062 9.45312C95.0104 9.80729 94.8125 10.2135 94.8125 10.6719L94.8438 11.5781C94.8438 12.0573 94.7188 12.4271 94.4688 12.6875C94.2292 12.9479 93.9115 13.0781 93.5156 13.0781C93.1302 13.0781 92.8125 12.9427 92.5625 12.6719C92.3229 12.401 92.2031 12.0312 92.2031 11.5625C92.2031 10.6667 92.6615 9.84375 93.5781 9.09375C94.4948 8.34375 95.7812 7.96875 97.4375 7.96875C98.7083 7.96875 99.75 8.18229 100.562 8.60938C101.177 8.93229 101.63 9.4375 101.922 10.125C102.109 10.5729 102.203 11.4896 102.203 12.875V17.7344C102.203 19.099 102.229 19.9375 102.281 20.25C102.333 20.5521 102.417 20.7552 102.531 20.8594C102.656 20.9635 102.797 21.0156 102.953 21.0156C103.12 21.0156 103.266 20.9792 103.391 20.9062C103.609 20.7708 104.031 20.3906 104.656 19.7656V20.6406C103.49 22.2031 102.375 22.9844 101.312 22.9844C100.802 22.9844 100.396 22.8073 100.094 22.4531C99.7917 22.099 99.6354 21.4948 99.625 20.6406ZM99.625 19.625V14.1719C98.0521 14.7969 97.0365 15.2396 96.5781 15.5C95.7552 15.9583 95.1667 16.4375 94.8125 16.9375C94.4583 17.4375 94.2812 17.9844 94.2812 18.5781C94.2812 19.3281 94.5052 19.9531 94.9531 20.4531C95.401 20.9427 95.9167 21.1875 96.5 21.1875C97.2917 21.1875 98.3333 20.6667 99.625 19.625Z" fill="#FDFDFD"/>
<g filter="url(#filter1_d_125_734)">
<path d="M114.625 20.6406C113.156 21.776 112.234 22.4323 111.859 22.6094C111.297 22.8698 110.698 23 110.062 23C109.073 23 108.255 22.6615 107.609 21.9844C106.974 21.3073 106.656 20.4167 106.656 19.3125C106.656 18.6146 106.812 18.0104 107.125 17.5C107.552 16.7917 108.292 16.125 109.344 15.5C110.406 14.875 112.167 14.1146 114.625 13.2188V12.6562C114.625 11.2292 114.396 10.25 113.938 9.71875C113.49 9.1875 112.833 8.92188 111.969 8.92188C111.312 8.92188 110.792 9.09896 110.406 9.45312C110.01 9.80729 109.812 10.2135 109.812 10.6719L109.844 11.5781C109.844 12.0573 109.719 12.4271 109.469 12.6875C109.229 12.9479 108.911 13.0781 108.516 13.0781C108.13 13.0781 107.812 12.9427 107.562 12.6719C107.323 12.401 107.203 12.0312 107.203 11.5625C107.203 10.6667 107.661 9.84375 108.578 9.09375C109.495 8.34375 110.781 7.96875 112.438 7.96875C113.708 7.96875 114.75 8.18229 115.562 8.60938C116.177 8.93229 116.63 9.4375 116.922 10.125C117.109 10.5729 117.203 11.4896 117.203 12.875V17.7344C117.203 19.099 117.229 19.9375 117.281 20.25C117.333 20.5521 117.417 20.7552 117.531 20.8594C117.656 20.9635 117.797 21.0156 117.953 21.0156C118.12 21.0156 118.266 20.9792 118.391 20.9062C118.609 20.7708 119.031 20.3906 119.656 19.7656V20.6406C118.49 22.2031 117.375 22.9844 116.312 22.9844C115.802 22.9844 115.396 22.8073 115.094 22.4531C114.792 22.099 114.635 21.4948 114.625 20.6406ZM114.625 19.625V14.1719C113.052 14.7969 112.036 15.2396 111.578 15.5C110.755 15.9583 110.167 16.4375 109.812 16.9375C109.458 17.4375 109.281 17.9844 109.281 18.5781C109.281 19.3281 109.505 19.9531 109.953 20.4531C110.401 20.9427 110.917 21.1875 111.5 21.1875C112.292 21.1875 113.333 20.6667 114.625 19.625Z" fill="#FDFDFD"/>
<path d="M114.207 21.5904C113.789 21.9075 113.427 22.1747 113.122 22.3917C112.665 22.7173 112.306 22.9513 112.073 23.0615L112.069 23.0631L112.069 23.0631C111.439 23.3548 110.769 23.5 110.062 23.5C108.945 23.5 107.994 23.1117 107.248 22.3295L107.245 22.3265L107.245 22.3265C106.506 21.5397 106.156 20.5182 106.156 19.3125C106.156 18.5386 106.33 17.8413 106.698 17.2404C107.183 16.4362 107.998 15.7182 109.088 15.0701L109.09 15.069L109.09 15.069C110.145 14.4487 111.831 13.7158 114.125 12.8695V12.6562C114.125 11.2445 113.89 10.4296 113.559 10.0454L113.555 10.0411L113.555 10.041C113.225 9.64933 112.725 9.42188 111.969 9.42188C111.405 9.42188 111.016 9.57193 110.745 9.82129L110.74 9.82578L110.74 9.82575C110.434 10.0992 110.315 10.374 110.313 10.6641L110.343 11.5609L110.344 11.5695V11.5781C110.344 12.141 110.196 12.6496 109.833 13.0299C109.488 13.4034 109.031 13.5781 108.516 13.5781C107.998 13.5781 107.545 13.3896 107.195 13.011L107.188 13.0032L107.188 13.0032C106.846 12.6165 106.703 12.1162 106.703 11.5625C106.703 10.4717 107.269 9.51897 108.262 8.70677C109.297 7.85935 110.711 7.46875 112.438 7.46875C113.76 7.46875 114.889 7.6903 115.795 8.16675L114.207 21.5904ZM114.207 21.5904C114.293 22.0662 114.453 22.4724 114.713 22.7776C115.12 23.2547 115.672 23.4844 116.312 23.4844C117.626 23.4844 118.871 22.5286 120.057 20.9398L120.156 20.8067V20.6406V19.7656V18.5585L119.303 19.4121C118.675 20.04 118.297 20.3736 118.134 20.4772C118.096 20.4979 118.041 20.5156 117.953 20.5156C117.925 20.5156 117.9 20.5103 117.87 20.4895C117.865 20.4816 117.856 20.4658 117.845 20.4391C117.822 20.3819 117.796 20.2938 117.774 20.1665C117.731 19.9033 117.703 19.1144 117.703 17.7344V12.875C117.703 12.1728 117.679 11.5789 117.63 11.0976C117.582 10.6259 117.506 10.2254 117.383 9.93193L117.382 9.92972C117.049 9.14463 116.52 8.54761 115.795 8.16679L114.207 21.5904ZM111.821 15.9368L111.821 15.9368L111.825 15.9347C112.183 15.7314 112.942 15.3918 114.125 14.9114V19.3836C112.938 20.3104 112.076 20.6875 111.5 20.6875C111.078 20.6875 110.691 20.5179 110.324 20.1175C109.969 19.7205 109.781 19.2195 109.781 18.5781C109.781 18.0914 109.924 17.6449 110.221 17.2265C110.515 16.8114 111.032 16.3765 111.821 15.9368Z" stroke="black"/>
</g>
<path d="M126.641 8.26562V11.4844C127.839 9.33854 129.068 8.26562 130.328 8.26562C130.901 8.26562 131.375 8.44271 131.75 8.79688C132.125 9.14062 132.312 9.54167 132.312 10C132.312 10.4062 132.177 10.75 131.906 11.0312C131.635 11.3125 131.312 11.4531 130.938 11.4531C130.573 11.4531 130.161 11.276 129.703 10.9219C129.255 10.5573 128.922 10.375 128.703 10.375C128.516 10.375 128.312 10.4792 128.094 10.6875C127.625 11.1146 127.141 11.8177 126.641 12.7969V19.6562C126.641 20.4479 126.74 21.0469 126.938 21.4531C127.073 21.7344 127.312 21.9688 127.656 22.1562C128 22.3438 128.495 22.4375 129.141 22.4375V23H121.812V22.4375C122.542 22.4375 123.083 22.3229 123.438 22.0938C123.698 21.9271 123.88 21.6615 123.984 21.2969C124.036 21.1198 124.062 20.6146 124.062 19.7812V14.2344C124.062 12.5677 124.026 11.5781 123.953 11.2656C123.891 10.9427 123.766 10.7083 123.578 10.5625C123.401 10.4167 123.177 10.3438 122.906 10.3438C122.583 10.3438 122.219 10.4219 121.812 10.5781L121.656 10.0156L125.984 8.26562H126.641Z" fill="#FDFDFD"/>
<path d="M146.375 17.125C145.99 19.0104 145.234 20.4635 144.109 21.4844C142.984 22.4948 141.74 23 140.375 23C138.75 23 137.333 22.3177 136.125 20.9531C134.917 19.5885 134.312 17.7448 134.312 15.4219C134.312 13.1719 134.979 11.3438 136.312 9.9375C137.656 8.53125 139.266 7.82812 141.141 7.82812C142.547 7.82812 143.703 8.20312 144.609 8.95312C145.516 9.69271 145.969 10.4635 145.969 11.2656C145.969 11.6615 145.839 11.9844 145.578 12.2344C145.328 12.474 144.974 12.5938 144.516 12.5938C143.901 12.5938 143.438 12.3958 143.125 12C142.948 11.7812 142.828 11.3646 142.766 10.75C142.714 10.1354 142.505 9.66667 142.141 9.34375C141.776 9.03125 141.271 8.875 140.625 8.875C139.583 8.875 138.745 9.26042 138.109 10.0312C137.266 11.0521 136.844 12.401 136.844 14.0781C136.844 15.7865 137.26 17.2969 138.094 18.6094C138.938 19.9115 140.073 20.5625 141.5 20.5625C142.521 20.5625 143.438 20.2135 144.25 19.5156C144.823 19.0365 145.38 18.1667 145.922 16.9062L146.375 17.125Z" fill="#FDFDFD"/>
<path d="M153.375 0.78125V11.25C154.531 9.97917 155.448 9.16667 156.125 8.8125C156.802 8.44792 157.479 8.26562 158.156 8.26562C158.969 8.26562 159.667 8.48958 160.25 8.9375C160.833 9.38542 161.266 10.0885 161.547 11.0469C161.745 11.7135 161.844 12.9323 161.844 14.7031V19.7656C161.844 20.6719 161.917 21.2917 162.062 21.625C162.167 21.875 162.344 22.0729 162.594 22.2188C162.844 22.3646 163.302 22.4375 163.969 22.4375V23H156.938V22.4375H157.266C157.932 22.4375 158.396 22.3385 158.656 22.1406C158.917 21.9323 159.099 21.6302 159.203 21.2344C159.234 21.0677 159.25 20.5781 159.25 19.7656V14.7031C159.25 13.1406 159.167 12.1146 159 11.625C158.844 11.1354 158.589 10.7708 158.234 10.5312C157.88 10.2812 157.453 10.1562 156.953 10.1562C156.443 10.1562 155.911 10.2917 155.359 10.5625C154.807 10.8333 154.146 11.3802 153.375 12.2031V19.7656C153.375 20.7448 153.427 21.3542 153.531 21.5938C153.646 21.8333 153.849 22.0365 154.141 22.2031C154.443 22.3594 154.958 22.4375 155.688 22.4375V23H148.594V22.4375C149.229 22.4375 149.729 22.3385 150.094 22.1406C150.302 22.0365 150.469 21.8385 150.594 21.5469C150.719 21.2552 150.781 20.6615 150.781 19.7656V6.8125C150.781 5.17708 150.74 4.17188 150.656 3.79688C150.583 3.42188 150.464 3.16667 150.297 3.03125C150.141 2.89583 149.927 2.82812 149.656 2.82812C149.438 2.82812 149.083 2.91146 148.594 3.07812L148.375 2.53125L152.656 0.78125H153.375Z" fill="#FDFDFD"/>
<path d="M169.672 0.78125C170.109 0.78125 170.479 0.9375 170.781 1.25C171.094 1.55208 171.25 1.92188 171.25 2.35938C171.25 2.79688 171.094 3.17188 170.781 3.48438C170.479 3.79688 170.109 3.95312 169.672 3.95312C169.234 3.95312 168.859 3.79688 168.547 3.48438C168.234 3.17188 168.078 2.79688 168.078 2.35938C168.078 1.92188 168.229 1.55208 168.531 1.25C168.844 0.9375 169.224 0.78125 169.672 0.78125ZM170.969 8.26562V19.7656C170.969 20.6615 171.031 21.2604 171.156 21.5625C171.292 21.8542 171.484 22.0729 171.734 22.2188C171.995 22.3646 172.464 22.4375 173.141 22.4375V23H166.188V22.4375C166.885 22.4375 167.354 22.3698 167.594 22.2344C167.833 22.099 168.021 21.875 168.156 21.5625C168.302 21.25 168.375 20.651 168.375 19.7656V14.25C168.375 12.6979 168.328 11.6927 168.234 11.2344C168.161 10.901 168.047 10.6719 167.891 10.5469C167.734 10.4115 167.521 10.3438 167.25 10.3438C166.958 10.3438 166.604 10.4219 166.188 10.5781L165.969 10.0156L170.281 8.26562H170.969Z" fill="#FDFDFD"/>
<path d="M179.984 3.75V8.45312H183.328V9.54688H179.984V18.8281C179.984 19.7552 180.115 20.3802 180.375 20.7031C180.646 21.026 180.99 21.1875 181.406 21.1875C181.75 21.1875 182.083 21.0833 182.406 20.875C182.729 20.6562 182.979 20.3385 183.156 19.9219H183.766C183.401 20.9427 182.885 21.7135 182.219 22.2344C181.552 22.7448 180.865 23 180.156 23C179.677 23 179.208 22.8698 178.75 22.6094C178.292 22.3385 177.953 21.9583 177.734 21.4688C177.516 20.9688 177.406 20.2031 177.406 19.1719V9.54688H175.141V9.03125C175.714 8.80208 176.297 8.41667 176.891 7.875C177.495 7.32292 178.031 6.67188 178.5 5.92188C178.74 5.52604 179.073 4.80208 179.5 3.75H179.984Z" fill="#FDFDFD"/>
<path d="M187.984 13.6406C187.974 15.7656 188.49 17.4323 189.531 18.6406C190.573 19.849 191.797 20.4531 193.203 20.4531C194.141 20.4531 194.953 20.1979 195.641 19.6875C196.339 19.1667 196.922 18.2812 197.391 17.0312L197.875 17.3438C197.656 18.7708 197.021 20.0729 195.969 21.25C194.917 22.4167 193.599 23 192.016 23C190.297 23 188.823 22.3333 187.594 21C186.375 19.6562 185.766 17.8542 185.766 15.5938C185.766 13.1458 186.391 11.2396 187.641 9.875C188.901 8.5 190.479 7.8125 192.375 7.8125C193.979 7.8125 195.297 8.34375 196.328 9.40625C197.359 10.4583 197.875 11.8698 197.875 13.6406H187.984ZM187.984 12.7344H194.609C194.557 11.8177 194.448 11.1719 194.281 10.7969C194.021 10.2135 193.63 9.75521 193.109 9.42188C192.599 9.08854 192.062 8.92188 191.5 8.92188C190.635 8.92188 189.859 9.26042 189.172 9.9375C188.495 10.6042 188.099 11.5365 187.984 12.7344Z" fill="#FDFDFD"/>
<path d="M211.938 17.125C211.552 19.0104 210.797 20.4635 209.672 21.4844C208.547 22.4948 207.302 23 205.938 23C204.312 23 202.896 22.3177 201.688 20.9531C200.479 19.5885 199.875 17.7448 199.875 15.4219C199.875 13.1719 200.542 11.3438 201.875 9.9375C203.219 8.53125 204.828 7.82812 206.703 7.82812C208.109 7.82812 209.266 8.20312 210.172 8.95312C211.078 9.69271 211.531 10.4635 211.531 11.2656C211.531 11.6615 211.401 11.9844 211.141 12.2344C210.891 12.474 210.536 12.5938 210.078 12.5938C209.464 12.5938 209 12.3958 208.688 12C208.51 11.7812 208.391 11.3646 208.328 10.75C208.276 10.1354 208.068 9.66667 207.703 9.34375C207.339 9.03125 206.833 8.875 206.188 8.875C205.146 8.875 204.307 9.26042 203.672 10.0312C202.828 11.0521 202.406 12.401 202.406 14.0781C202.406 15.7865 202.823 17.2969 203.656 18.6094C204.5 19.9115 205.635 20.5625 207.062 20.5625C208.083 20.5625 209 20.2135 209.812 19.5156C210.385 19.0365 210.943 18.1667 211.484 16.9062L211.938 17.125Z" fill="#FDFDFD"/>
<path d="M218.781 3.75V8.45312H222.125V9.54688H218.781V18.8281C218.781 19.7552 218.911 20.3802 219.172 20.7031C219.443 21.026 219.786 21.1875 220.203 21.1875C220.547 21.1875 220.88 21.0833 221.203 20.875C221.526 20.6562 221.776 20.3385 221.953 19.9219H222.562C222.198 20.9427 221.682 21.7135 221.016 22.2344C220.349 22.7448 219.661 23 218.953 23C218.474 23 218.005 22.8698 217.547 22.6094C217.089 22.3385 216.75 21.9583 216.531 21.4688C216.312 20.9688 216.203 20.2031 216.203 19.1719V9.54688H213.938V9.03125C214.51 8.80208 215.094 8.41667 215.688 7.875C216.292 7.32292 216.828 6.67188 217.297 5.92188C217.536 5.52604 217.87 4.80208 218.297 3.75H218.781Z" fill="#FDFDFD"/>
</g>
<defs>
<filter id="filter0_d_125_734" x="0.203125" y="0.78125" width="226.359" height="31.2188" filterUnits="userSpaceOnUse" color-interpolation-filters="sRGB">
<feFlood flood-opacity="0" result="BackgroundImageFix"/>
<feColorMatrix in="SourceAlpha" type="matrix" values="0 0 0 0 0 0 0 0 0 0 0 0 0 0 0 0 0 0 127 0" result="hardAlpha"/>
<feOffset dy="4"/>
<feGaussianBlur stdDeviation="2"/>
<feComposite in2="hardAlpha" operator="out"/>
<feColorMatrix type="matrix" values="0 0 0 0 0 0 0 0 0 0 0 0 0 0 0 0 0 0 0.25 0"/>
<feBlend mode="normal" in2="BackgroundImageFix" result="effect1_dropShadow_125_734"/>
<feBlend mode="normal" in="SourceGraphic" in2="effect1_dropShadow_125_734" result="shape"/>
</filter>
<filter id="filter1_d_125_734" x="101.656" y="6.96875" width="23" height="25.0312" filterUnits="userSpaceOnUse" color-interpolation-filters="sRGB">
<feFlood flood-opacity="0" result="BackgroundImageFix"/>
<feColorMatrix in="SourceAlpha" type="matrix" values="0 0 0 0 0 0 0 0 0 0 0 0 0 0 0 0 0 0 127 0" result="hardAlpha"/>
<feOffset dy="4"/>
<feGaussianBlur stdDeviation="2"/>
<feComposite in2="hardAlpha" operator="out"/>
<feColorMatrix type="matrix" values="0 0 0 0 0 0 0 0 0 0 0 0 0 0 0 0 0 0 0.25 0"/>
<feBlend mode="normal" in2="BackgroundImageFix" result="effect1_dropShadow_125_734"/>
<feBlend mode="normal" in="SourceGraphic" in2="effect1_dropShadow_125_734" result="shape"/>
</filter>
</defs>
</svg>
